<svg width="53" height="52" viewBox="0 0 53 52" fill="none" xmlns="http://www.w3.org/2000/svg">
<path d="M39.5402 12.9999C38.2186 12.9999 37.0052 12.2416 36.3986 11.0716L34.8386 7.92992C33.8419 5.95825 31.2419 4.33325 29.0319 4.33325H24.0702C21.8386 4.33325 19.2386 5.95825 18.2419 7.92992L16.6819 11.0716C16.0752 12.2416 14.8619 12.9999 13.5402 12.9999C8.83857 12.9999 5.11191 16.9649 5.41524 21.6449L6.54191 39.5416C6.80191 44.0049 9.20691 47.6666 15.1869 47.6666H37.8936C43.8736 47.6666 46.2569 44.0049 46.5386 39.5416L47.6652 21.6449C47.9686 16.9649 44.2419 12.9999 39.5402 12.9999ZM23.2902 15.7083H29.7902C30.6786 15.7083 31.4152 16.4449 31.4152 17.3333C31.4152 18.2216 30.6786 18.9583 29.7902 18.9583H23.2902C22.4019 18.9583 21.6652 18.2216 21.6652 17.3333C21.6652 16.4449 22.4019 15.7083 23.2902 15.7083ZM26.5402 39.2599C22.5102 39.2599 19.2169 35.9883 19.2169 31.9366C19.2169 27.8849 22.4886 24.6133 26.5402 24.6133C30.5919 24.6133 33.8636 27.8849 33.8636 31.9366C33.8636 35.9883 30.5702 39.2599 26.5402 39.2599Z" fill="#212121"/>
</svg>
