<svg width="142" height="32" viewBox="0 0 142 32" fill="none" xmlns="http://www.w3.org/2000/svg">
<path fill-rule="evenodd" clip-rule="evenodd" d="M12.545 0C10.853 0 9.34394 1.06468 8.77659 2.6588L0.234921 26.6588C-0.691937 29.263 1.2391 32 4.00337 32H88.234C88.413 32 88.5907 31.988 88.7659 31.9645C88.8279 31.9562 88.8903 31.9509 88.9529 31.9509H130.722C132.487 31.9509 134.044 30.7942 134.552 29.1041L141.764 5.15321C142.537 2.58594 140.615 0 137.934 0H108.691H62.4729H12.545Z" fill="#212121" fill-opacity="0.6"/>
<path d="M28.4229 9.48145H27.0895C23.7562 9.48145 22.4229 10.8148 22.4229 14.1481V18.1481C22.4229 21.4815 23.7562 22.8148 27.0895 22.8148H31.0895C34.4229 22.8148 35.7562 21.4815 35.7562 18.1481V16.8148" stroke="#F5F5F5" stroke-linecap="round" stroke-linejoin="round"/>
<path d="M31.7831 10.1615L26.5298 15.4148C26.3298 15.6148 26.1298 16.0081 26.0898 16.2948L25.8031 18.3015C25.6964 19.0281 26.2098 19.5348 26.9364 19.4348L28.9431 19.1481C29.2231 19.1081 29.6164 18.9081 29.8231 18.7081L35.0765 13.4548C35.9831 12.5481 36.4098 11.4948 35.0765 10.1615C33.7431 8.82812 32.6898 9.25478 31.7831 10.1615Z" stroke="#F5F5F5" stroke-miterlimit="10" stroke-linecap="round" stroke-linejoin="round"/>
<path d="M31.0303 10.9146C31.4769 12.5079 32.7236 13.7546 34.3236 14.2079" stroke="#F5F5F5" stroke-miterlimit="10" stroke-linecap="round" stroke-linejoin="round"/>
<path opacity="0.8" d="M45.8652 12.6538C45.4551 12.6538 45.0879 12.728 44.7637 12.8765C44.4434 13.0249 44.1719 13.2397 43.9492 13.521C43.7266 13.7983 43.5566 14.1362 43.4395 14.5347C43.3223 14.9292 43.2637 15.3745 43.2637 15.8706C43.2637 16.5347 43.3574 17.1069 43.5449 17.5874C43.7324 18.064 44.0176 18.4312 44.4004 18.689C44.7832 18.9429 45.2676 19.0698 45.8535 19.0698C46.2168 19.0698 46.5703 19.0347 46.9141 18.9644C47.2578 18.894 47.6133 18.7983 47.9805 18.6772V19.8726C47.6328 20.0093 47.2812 20.1089 46.9258 20.1714C46.5703 20.2339 46.1602 20.2651 45.6953 20.2651C44.8203 20.2651 44.0938 20.0835 43.5156 19.7202C42.9414 19.3569 42.5117 18.8452 42.2266 18.1851C41.9453 17.5249 41.8047 16.7515 41.8047 15.8647C41.8047 15.2163 41.8945 14.6226 42.0742 14.0835C42.2539 13.5444 42.5156 13.0796 42.8594 12.689C43.2031 12.2944 43.627 11.9917 44.1309 11.7808C44.6387 11.5659 45.2188 11.4585 45.8711 11.4585C46.3008 11.4585 46.7227 11.5073 47.1367 11.605C47.5547 11.6987 47.9414 11.8335 48.2969 12.0093L47.8047 13.1694C47.5078 13.0288 47.1973 12.9077 46.873 12.8062C46.5488 12.7046 46.2129 12.6538 45.8652 12.6538ZM51.0566 11.0308V13.3218C51.0566 13.5601 51.0488 13.7925 51.0332 14.019C51.0215 14.2456 51.0078 14.4214 50.9922 14.5464H51.0684C51.2051 14.3198 51.373 14.1343 51.5723 13.9897C51.7715 13.8413 51.9941 13.73 52.2402 13.6558C52.4902 13.5815 52.7559 13.5444 53.0371 13.5444C53.5332 13.5444 53.9551 13.6284 54.3027 13.7964C54.6504 13.9604 54.916 14.2163 55.0996 14.564C55.2871 14.9116 55.3809 15.3628 55.3809 15.9175V20.1479H54.0039V16.1753C54.0039 15.6714 53.9004 15.2944 53.6934 15.0444C53.4863 14.7905 53.166 14.6636 52.7324 14.6636C52.3145 14.6636 51.9824 14.7515 51.7363 14.9272C51.4941 15.0991 51.3203 15.355 51.2148 15.6948C51.1094 16.0308 51.0566 16.4409 51.0566 16.9253V20.1479H49.6797V11.0308H51.0566ZM59.8516 13.5386C60.6719 13.5386 61.291 13.7202 61.709 14.0835C62.1309 14.4468 62.3418 15.0132 62.3418 15.7827V20.1479H61.3633L61.0996 19.228H61.0527C60.8691 19.4624 60.6797 19.6558 60.4844 19.8081C60.2891 19.9604 60.0625 20.0737 59.8047 20.1479C59.5508 20.2261 59.2402 20.2651 58.873 20.2651C58.4863 20.2651 58.1406 20.1948 57.8359 20.0542C57.5312 19.9097 57.291 19.6909 57.1152 19.3979C56.9395 19.105 56.8516 18.7339 56.8516 18.2847C56.8516 17.6167 57.0996 17.1147 57.5957 16.7788C58.0957 16.4429 58.8496 16.2573 59.8574 16.2222L60.9824 16.1812V15.8413C60.9824 15.3921 60.877 15.0718 60.666 14.8804C60.459 14.689 60.166 14.5933 59.7871 14.5933C59.4629 14.5933 59.1484 14.6401 58.8438 14.7339C58.5391 14.8276 58.2422 14.9429 57.9531 15.0796L57.5078 14.1069C57.8242 13.939 58.1836 13.8022 58.5859 13.6968C58.9922 13.5913 59.4141 13.5386 59.8516 13.5386ZM60.9766 17.0483L60.1387 17.0776C59.4512 17.1011 58.9688 17.2183 58.6914 17.4292C58.4141 17.6401 58.2754 17.9292 58.2754 18.2964C58.2754 18.6167 58.3711 18.8511 58.5625 18.9995C58.7539 19.144 59.0059 19.2163 59.3184 19.2163C59.7949 19.2163 60.1895 19.0815 60.502 18.812C60.8184 18.5386 60.9766 18.1382 60.9766 17.6108V17.0483ZM67.6504 13.5386C68.3809 13.5386 68.9492 13.728 69.3555 14.1069C69.7656 14.4819 69.9707 15.0854 69.9707 15.9175V20.1479H68.5938V16.1753C68.5938 15.6714 68.4902 15.2944 68.2832 15.0444C68.0762 14.7905 67.7559 14.6636 67.3223 14.6636C66.6934 14.6636 66.2559 14.8569 66.0098 15.2437C65.7676 15.6304 65.6465 16.1909 65.6465 16.9253V20.1479H64.2695V13.6616H65.3418L65.5352 14.5405H65.6113C65.752 14.314 65.9258 14.1284 66.1328 13.9839C66.3438 13.8354 66.5781 13.7241 66.8359 13.6499C67.0977 13.5757 67.3691 13.5386 67.6504 13.5386ZM73.75 23.0308C72.8711 23.0308 72.1973 22.8726 71.7285 22.5562C71.2598 22.2397 71.0254 21.7964 71.0254 21.2261C71.0254 20.8276 71.1504 20.4897 71.4004 20.2124C71.6504 19.939 72.0078 19.7495 72.4727 19.644C72.2969 19.5659 72.1445 19.4448 72.0156 19.2808C71.8906 19.1128 71.8281 18.9272 71.8281 18.7241C71.8281 18.4819 71.8965 18.2749 72.0332 18.103C72.1699 17.9312 72.375 17.7651 72.6484 17.605C72.3086 17.4604 72.0352 17.2261 71.8281 16.9019C71.625 16.5737 71.5234 16.189 71.5234 15.7476C71.5234 15.2788 71.623 14.8804 71.8223 14.5522C72.0215 14.2202 72.3125 13.9683 72.6953 13.7964C73.0781 13.6206 73.541 13.5327 74.084 13.5327C74.2012 13.5327 74.3281 13.5405 74.4648 13.5562C74.6055 13.5679 74.7344 13.5835 74.8516 13.603C74.9727 13.6187 75.0645 13.6362 75.127 13.6558H77.3711V14.4233L76.2695 14.6284C76.375 14.7769 76.459 14.9468 76.5215 15.1382C76.584 15.3257 76.6152 15.5308 76.6152 15.7534C76.6152 16.4253 76.3828 16.9546 75.918 17.3413C75.457 17.7241 74.8203 17.9155 74.0078 17.9155C73.8125 17.9077 73.623 17.8921 73.4395 17.8687C73.2988 17.9546 73.1914 18.0503 73.1172 18.1558C73.043 18.2573 73.0059 18.3726 73.0059 18.5015C73.0059 18.6069 73.043 18.6929 73.1172 18.7593C73.1914 18.8218 73.3008 18.8687 73.4453 18.8999C73.5938 18.9312 73.7734 18.9468 73.9844 18.9468H75.1035C75.8145 18.9468 76.3574 19.0972 76.7324 19.3979C77.1074 19.6987 77.2949 20.1401 77.2949 20.7222C77.2949 21.4604 76.9902 22.0288 76.3809 22.4272C75.7715 22.8296 74.8945 23.0308 73.75 23.0308ZM73.8027 22.064C74.2832 22.064 74.6875 22.0171 75.0156 21.9233C75.3438 21.8296 75.5918 21.6948 75.7598 21.519C75.9277 21.3472 76.0117 21.1421 76.0117 20.9038C76.0117 20.6929 75.959 20.5308 75.8535 20.4175C75.748 20.3042 75.5898 20.2261 75.3789 20.1831C75.168 20.1401 74.9062 20.1187 74.5938 20.1187H73.5742C73.3203 20.1187 73.0957 20.1577 72.9004 20.2358C72.7051 20.3179 72.5527 20.4351 72.4434 20.5874C72.3379 20.7397 72.2852 20.9233 72.2852 21.1382C72.2852 21.4351 72.416 21.6636 72.6777 21.8237C72.9434 21.9839 73.3184 22.064 73.8027 22.064ZM74.0723 17.0132C74.4746 17.0132 74.7734 16.9038 74.9688 16.6851C75.1641 16.4624 75.2617 16.1499 75.2617 15.7476C75.2617 15.3101 75.1602 14.9819 74.957 14.7632C74.7578 14.5444 74.4609 14.4351 74.0664 14.4351C73.6797 14.4351 73.3848 14.5464 73.1816 14.769C72.9824 14.9917 72.8828 15.3218 72.8828 15.7593C72.8828 16.1538 72.9824 16.4624 73.1816 16.6851C73.3848 16.9038 73.6816 17.0132 74.0723 17.0132ZM81.1387 13.5386C81.7168 13.5386 82.2129 13.6577 82.627 13.896C83.041 14.1343 83.3594 14.4722 83.582 14.9097C83.8047 15.3472 83.916 15.8706 83.916 16.48V17.2183H79.5859C79.6016 17.8472 79.7695 18.3315 80.0898 18.6714C80.4141 19.0112 80.8672 19.1812 81.4492 19.1812C81.8633 19.1812 82.2344 19.1421 82.5625 19.064C82.8945 18.9819 83.2363 18.8628 83.5879 18.7065V19.8257C83.2637 19.978 82.9336 20.0894 82.5977 20.1597C82.2617 20.23 81.8594 20.2651 81.3906 20.2651C80.7539 20.2651 80.1934 20.1421 79.709 19.896C79.2285 19.646 78.8516 19.2749 78.5781 18.7827C78.3086 18.2905 78.1738 17.6792 78.1738 16.9487C78.1738 16.2222 78.2969 15.605 78.543 15.0972C78.7891 14.5894 79.1348 14.2026 79.5801 13.937C80.0254 13.6714 80.5449 13.5386 81.1387 13.5386ZM81.1387 14.5757C80.7051 14.5757 80.3535 14.7163 80.084 14.9976C79.8184 15.2788 79.6621 15.6909 79.6152 16.2339H82.5684C82.5645 15.9097 82.5098 15.6226 82.4043 15.3726C82.3027 15.1226 82.1465 14.9272 81.9355 14.7866C81.7285 14.646 81.4629 14.5757 81.1387 14.5757ZM91.2168 11.5815C92.3223 11.5815 93.1289 11.8081 93.6367 12.2612C94.1445 12.7144 94.3984 13.3491 94.3984 14.1655C94.3984 14.5366 94.3398 14.8901 94.2227 15.2261C94.1094 15.5581 93.9219 15.853 93.6602 16.1108C93.3984 16.3647 93.0527 16.5659 92.623 16.7144C92.1973 16.8628 91.6719 16.937 91.0469 16.937H90.1328V20.1479H88.7266V11.5815H91.2168ZM91.123 12.7476H90.1328V15.7651H90.9004C91.3418 15.7651 91.7168 15.7144 92.0254 15.6128C92.334 15.5073 92.5684 15.3413 92.7285 15.1147C92.8887 14.8882 92.9688 14.5894 92.9688 14.2183C92.9688 13.7222 92.8184 13.353 92.5176 13.1108C92.2207 12.8687 91.7559 12.7476 91.123 12.7476ZM97.3457 11.0308V13.3218C97.3457 13.5601 97.3379 13.7925 97.3223 14.019C97.3105 14.2456 97.2969 14.4214 97.2812 14.5464H97.3574C97.4941 14.3198 97.6621 14.1343 97.8613 13.9897C98.0605 13.8413 98.2832 13.73 98.5293 13.6558C98.7793 13.5815 99.0449 13.5444 99.3262 13.5444C99.8223 13.5444 100.244 13.6284 100.592 13.7964C100.939 13.9604 101.205 14.2163 101.389 14.564C101.576 14.9116 101.67 15.3628 101.67 15.9175V20.1479H100.293V16.1753C100.293 15.6714 100.189 15.2944 99.9824 15.0444C99.7754 14.7905 99.4551 14.6636 99.0215 14.6636C98.6035 14.6636 98.2715 14.7515 98.0254 14.9272C97.7832 15.0991 97.6094 15.355 97.5039 15.6948C97.3984 16.0308 97.3457 16.4409 97.3457 16.9253V20.1479H95.9688V11.0308H97.3457ZM109.34 16.8901C109.34 17.4292 109.27 17.9077 109.129 18.3257C108.988 18.7437 108.783 19.0972 108.514 19.3862C108.244 19.6714 107.92 19.8901 107.541 20.0425C107.162 20.1909 106.734 20.2651 106.258 20.2651C105.812 20.2651 105.404 20.1909 105.033 20.0425C104.662 19.8901 104.34 19.6714 104.066 19.3862C103.797 19.0972 103.588 18.7437 103.439 18.3257C103.291 17.9077 103.217 17.4292 103.217 16.8901C103.217 16.1753 103.34 15.5698 103.586 15.0737C103.836 14.5737 104.191 14.1929 104.652 13.9312C105.113 13.6694 105.662 13.5386 106.299 13.5386C106.896 13.5386 107.424 13.6694 107.881 13.9312C108.338 14.1929 108.695 14.5737 108.953 15.0737C109.211 15.5737 109.34 16.1792 109.34 16.8901ZM104.635 16.8901C104.635 17.3628 104.691 17.7671 104.805 18.103C104.922 18.439 105.102 18.6968 105.344 18.8765C105.586 19.0522 105.898 19.1401 106.281 19.1401C106.664 19.1401 106.977 19.0522 107.219 18.8765C107.461 18.6968 107.639 18.439 107.752 18.103C107.865 17.7671 107.922 17.3628 107.922 16.8901C107.922 16.4175 107.865 16.0171 107.752 15.689C107.639 15.3569 107.461 15.105 107.219 14.9331C106.977 14.7573 106.662 14.6694 106.275 14.6694C105.705 14.6694 105.289 14.8608 105.027 15.2437C104.766 15.6265 104.635 16.1753 104.635 16.8901ZM113.336 19.1519C113.516 19.1519 113.693 19.1362 113.869 19.105C114.045 19.0698 114.205 19.0288 114.35 18.9819V20.0249C114.197 20.0913 114 20.1479 113.758 20.1948C113.516 20.2417 113.264 20.2651 113.002 20.2651C112.635 20.2651 112.305 20.2046 112.012 20.0835C111.719 19.9585 111.486 19.7456 111.314 19.4448C111.143 19.144 111.057 18.728 111.057 18.1968V14.7104H110.172V14.0952L111.121 13.6089L111.572 12.2202H112.439V13.6616H114.297V14.7104H112.439V18.1792C112.439 18.5073 112.521 18.7515 112.686 18.9116C112.85 19.0718 113.066 19.1519 113.336 19.1519ZM121.41 16.8901C121.41 17.4292 121.34 17.9077 121.199 18.3257C121.059 18.7437 120.854 19.0972 120.584 19.3862C120.314 19.6714 119.99 19.8901 119.611 20.0425C119.232 20.1909 118.805 20.2651 118.328 20.2651C117.883 20.2651 117.475 20.1909 117.104 20.0425C116.732 19.8901 116.41 19.6714 116.137 19.3862C115.867 19.0972 115.658 18.7437 115.51 18.3257C115.361 17.9077 115.287 17.4292 115.287 16.8901C115.287 16.1753 115.41 15.5698 115.656 15.0737C115.906 14.5737 116.262 14.1929 116.723 13.9312C117.184 13.6694 117.732 13.5386 118.369 13.5386C118.967 13.5386 119.494 13.6694 119.951 13.9312C120.408 14.1929 120.766 14.5737 121.023 15.0737C121.281 15.5737 121.41 16.1792 121.41 16.8901ZM116.705 16.8901C116.705 17.3628 116.762 17.7671 116.875 18.103C116.992 18.439 117.172 18.6968 117.414 18.8765C117.656 19.0522 117.969 19.1401 118.352 19.1401C118.734 19.1401 119.047 19.0522 119.289 18.8765C119.531 18.6968 119.709 18.439 119.822 18.103C119.936 17.7671 119.992 17.3628 119.992 16.8901C119.992 16.4175 119.936 16.0171 119.822 15.689C119.709 15.3569 119.531 15.105 119.289 14.9331C119.047 14.7573 118.732 14.6694 118.346 14.6694C117.775 14.6694 117.359 14.8608 117.098 15.2437C116.836 15.6265 116.705 16.1753 116.705 16.8901Z" fill="white"/>
</svg>
