<svg width="47" height="47" viewBox="0 0 47 47" fill="none" xmlns="http://www.w3.org/2000/svg">
<path d="M0.523438 23.028C0.523438 10.3203 10.8251 0.0186768 23.5328 0.0186768C36.2405 0.0186768 46.5421 10.3203 46.5421 23.028C46.5421 35.7357 36.2405 46.0374 23.5328 46.0374C10.8251 46.0374 0.523438 35.7357 0.523438 23.028Z" fill="#FDF8EC"/>
<rect x="7.53271" y="7.02802" width="32" height="32" rx="16" fill="url(#paint0_linear_129_741)"/>
<path d="M23.6696 25.6947C23.1007 25.6947 22.6058 25.5864 22.1847 25.3698C21.7636 25.1463 21.4385 24.832 21.2095 24.4268C20.9805 24.0217 20.866 23.5467 20.866 23.0018C20.866 22.5897 20.9288 22.2229 21.0544 21.9016C21.1873 21.5733 21.3757 21.2974 21.6195 21.0738C21.8633 20.8433 22.1588 20.6687 22.506 20.5499C22.8532 20.4242 23.2411 20.3613 23.6696 20.3613C23.9134 20.3613 24.1756 20.3928 24.4563 20.4556C24.7445 20.5185 25.0141 20.6233 25.2653 20.77C25.3835 20.8398 25.4611 20.9237 25.498 21.0214C25.5349 21.1192 25.5423 21.2205 25.5202 21.3253C25.498 21.4231 25.45 21.5104 25.3761 21.5873C25.3096 21.6571 25.2247 21.7025 25.1212 21.7235C25.0178 21.7374 24.9033 21.713 24.7777 21.6501C24.6152 21.5593 24.449 21.493 24.279 21.451C24.1091 21.4021 23.9466 21.3777 23.7915 21.3777C23.5477 21.3777 23.3334 21.4161 23.1487 21.493C22.9641 21.5628 22.8052 21.6676 22.6722 21.8073C22.5466 21.94 22.4506 22.1077 22.3841 22.3102C22.3176 22.5128 22.2844 22.7468 22.2844 23.0123C22.2844 23.5292 22.4137 23.9378 22.6722 24.2382C22.9382 24.5316 23.3113 24.6783 23.7915 24.6783C23.9466 24.6783 24.1054 24.6573 24.268 24.6154C24.4379 24.5735 24.6078 24.5071 24.7777 24.4163C24.9033 24.3535 25.0141 24.3325 25.1102 24.3535C25.2136 24.3744 25.2985 24.4233 25.365 24.5002C25.4315 24.57 25.4721 24.6573 25.4869 24.7621C25.5017 24.8599 25.4869 24.9577 25.4426 25.0555C25.4057 25.1533 25.3318 25.2336 25.221 25.2965C24.9772 25.4362 24.7186 25.5375 24.4453 25.6004C24.1719 25.6632 23.9134 25.6947 23.6696 25.6947Z" fill="white"/>
<path d="M23.5327 20.028V26.028" stroke="white" stroke-linecap="round" stroke-linejoin="round"/>
<path d="M30.1993 23.028C30.1993 26.708 27.2126 29.6947 23.5326 29.6947C19.8526 29.6947 16.866 26.708 16.866 23.028C16.866 19.348 19.8526 16.3613 23.5326 16.3613" stroke="white" stroke-linecap="round" stroke-linejoin="round"/>
<path d="M26.866 17.028V19.6947H29.5326" stroke="white" stroke-linecap="round" stroke-linejoin="round"/>
<path d="M30.1993 16.3613L26.866 19.6947" stroke="white" stroke-linecap="round" stroke-linejoin="round"/>
<defs>
<linearGradient id="paint0_linear_129_741" x1="10" y1="15.4112" x2="47.7683" y2="34.7028" gradientUnits="userSpaceOnUse">
<stop stop-color="#E0AD0F"/>
<stop offset="0.738102" stop-color="#A07801"/>
</linearGradient>
</defs>
</svg>
