<svg width="47" height="47" viewBox="0 0 47 47" fill="none" xmlns="http://www.w3.org/2000/svg">
<path d="M0.523438 23.0093C0.523438 10.3016 10.8251 0 23.5328 0C36.2405 0 46.5421 10.3016 46.5421 23.0093C46.5421 35.7171 36.2405 46.0187 23.5328 46.0187C10.8251 46.0187 0.523438 35.7171 0.523438 23.0093Z" fill="#78C8E1" fill-opacity="0.08"/>
<rect x="7.53271" y="7.00934" width="32" height="32" rx="16" fill="url(#paint0_linear_144_627)"/>
<path d="M23.6696 25.676C23.1007 25.676 22.6058 25.5677 22.1847 25.3512C21.7636 25.1276 21.4385 24.8133 21.2095 24.4081C20.9805 24.003 20.866 23.528 20.866 22.9831C20.866 22.571 20.9288 22.2043 21.0544 21.8829C21.1873 21.5546 21.3757 21.2787 21.6195 21.0552C21.8633 20.8246 22.1588 20.65 22.506 20.5313C22.8532 20.4055 23.2411 20.3427 23.6696 20.3427C23.9134 20.3427 24.1756 20.3741 24.4563 20.437C24.7445 20.4998 25.0141 20.6046 25.2653 20.7513C25.3835 20.8211 25.4611 20.905 25.498 21.0028C25.5349 21.1006 25.5423 21.2019 25.5202 21.3066C25.498 21.4044 25.45 21.4917 25.3761 21.5686C25.3096 21.6384 25.2247 21.6838 25.1212 21.7048C25.0178 21.7188 24.9033 21.6943 24.7777 21.6315C24.6152 21.5406 24.449 21.4743 24.279 21.4324C24.1091 21.3835 23.9466 21.359 23.7915 21.359C23.5477 21.359 23.3334 21.3974 23.1487 21.4743C22.9641 21.5441 22.8052 21.6489 22.6722 21.7886C22.5466 21.9213 22.4506 22.089 22.3841 22.2916C22.3176 22.4941 22.2844 22.7282 22.2844 22.9936C22.2844 23.5105 22.4137 23.9192 22.6722 24.2195C22.9382 24.5129 23.3113 24.6596 23.7915 24.6596C23.9466 24.6596 24.1054 24.6387 24.268 24.5967C24.4379 24.5548 24.6078 24.4885 24.7777 24.3977C24.9033 24.3348 25.0141 24.3138 25.1102 24.3348C25.2136 24.3557 25.2985 24.4046 25.365 24.4815C25.4315 24.5513 25.4721 24.6387 25.4869 24.7434C25.5017 24.8412 25.4869 24.939 25.4426 25.0368C25.4057 25.1346 25.3318 25.215 25.221 25.2778C24.9772 25.4175 24.7186 25.5188 24.4453 25.5817C24.1719 25.6446 23.9134 25.676 23.6696 25.676Z" fill="white"/>
<path d="M23.5327 20.0093V26.0093" stroke="white" stroke-linecap="round" stroke-linejoin="round"/>
<path d="M30.1993 23.0093C30.1993 26.6893 27.2126 29.676 23.5326 29.676C19.8526 29.676 16.866 26.6893 16.866 23.0093C16.866 19.3293 19.8526 16.3427 23.5326 16.3427" stroke="white" stroke-linecap="round" stroke-linejoin="round"/>
<path d="M30.1994 19.0093V16.3427H27.5327" stroke="white" stroke-linecap="round" stroke-linejoin="round"/>
<path d="M26.866 19.676L30.1993 16.3427" stroke="white" stroke-linecap="round" stroke-linejoin="round"/>
<defs>
<linearGradient id="paint0_linear_144_627" x1="39.5327" y1="39.0093" x2="1.45559" y2="27.9692" gradientUnits="userSpaceOnUse">
<stop stop-color="#022E64"/>
<stop offset="1" stop-color="#0E5DBD"/>
</linearGradient>
</defs>
</svg>
