<svg width="120" height="32" viewBox="0 0 120 32" fill="none" xmlns="http://www.w3.org/2000/svg">
<path fill-rule="evenodd" clip-rule="evenodd" d="M4 0C1.79086 0 0 1.79086 0 4V28C0 30.2091 1.79086 32 4 32H76.4785C76.6577 32 76.8353 31.988 77.0104 31.9645C77.0725 31.9562 77.1349 31.9509 77.1975 31.9509H112.389C114.368 31.9509 116.05 30.5039 116.345 28.547L119.954 4.59611C120.319 2.17684 118.446 0 115.999 0H93.9846H55.3716H4Z" fill="#212121" fill-opacity="0.6"/>
<path d="M25.9232 9.48145H24.5899C21.2566 9.48145 19.9232 10.8148 19.9232 14.1481V18.1481C19.9232 21.4815 21.2566 22.8148 24.5899 22.8148H28.5899C31.9232 22.8148 33.2566 21.4815 33.2566 18.1481V16.8148" stroke="#F5F5F5" stroke-linecap="round" stroke-linejoin="round"/>
<path d="M29.2831 10.1615L24.0298 15.4148C23.8298 15.6148 23.6298 16.0081 23.5898 16.2948L23.3031 18.3015C23.1964 19.0281 23.7098 19.5348 24.4364 19.4348L26.4431 19.1481C26.7231 19.1081 27.1164 18.9081 27.3231 18.7081L32.5765 13.4548C33.4831 12.5481 33.9098 11.4948 32.5765 10.1615C31.2431 8.82812 30.1898 9.25478 29.2831 10.1615Z" stroke="#F5F5F5" stroke-miterlimit="10" stroke-linecap="round" stroke-linejoin="round"/>
<path d="M28.53 10.9146C28.9767 12.5079 30.2234 13.7546 31.8234 14.2079" stroke="#F5F5F5" stroke-miterlimit="10" stroke-linecap="round" stroke-linejoin="round"/>
<path opacity="0.8" d="M44.5664 20.1479H39.7148V11.5815H44.5664V12.7651H41.1211V15.0913H44.3496V16.269H41.1211V18.9585H44.5664V20.1479ZM48.457 20.2651C47.6836 20.2651 47.0625 19.9839 46.5938 19.4214C46.1289 18.855 45.8965 18.021 45.8965 16.9194C45.8965 15.8062 46.1328 14.9644 46.6055 14.394C47.082 13.8237 47.709 13.5386 48.4863 13.5386C48.8145 13.5386 49.1016 13.5835 49.3477 13.6733C49.5938 13.7593 49.8047 13.8765 49.9805 14.0249C50.1602 14.1733 50.3125 14.3394 50.4375 14.5229H50.502C50.4824 14.4019 50.459 14.228 50.4316 14.0015C50.4082 13.771 50.3965 13.5581 50.3965 13.3628V11.0308H51.7793V20.1479H50.7012L50.4551 19.2632H50.3965C50.2793 19.4507 50.1309 19.6206 49.9512 19.7729C49.7754 19.9214 49.5645 20.0405 49.3184 20.1304C49.0762 20.2202 48.7891 20.2651 48.457 20.2651ZM48.8438 19.146C49.4336 19.146 49.8496 18.9761 50.0918 18.6362C50.334 18.2964 50.459 17.7866 50.4668 17.1069V16.9253C50.4668 16.1987 50.3496 15.6421 50.1152 15.2554C49.8809 14.8647 49.4531 14.6694 48.832 14.6694C48.3359 14.6694 47.957 14.8706 47.6953 15.2729C47.4375 15.6714 47.3086 16.228 47.3086 16.9429C47.3086 17.6577 47.4375 18.2046 47.6953 18.5835C47.957 18.9585 48.3398 19.146 48.8438 19.146ZM55.1309 13.6616V20.1479H53.7539V13.6616H55.1309ZM54.4512 11.1772C54.6621 11.1772 54.8438 11.2339 54.9961 11.3472C55.1523 11.4604 55.2305 11.6558 55.2305 11.9331C55.2305 12.2065 55.1523 12.4019 54.9961 12.519C54.8438 12.6323 54.6621 12.689 54.4512 12.689C54.2324 12.689 54.0469 12.6323 53.8945 12.519C53.7461 12.4019 53.6719 12.2065 53.6719 11.9331C53.6719 11.6558 53.7461 11.4604 53.8945 11.3472C54.0469 11.2339 54.2324 11.1772 54.4512 11.1772ZM59.5195 19.1519C59.6992 19.1519 59.877 19.1362 60.0527 19.105C60.2285 19.0698 60.3887 19.0288 60.5332 18.9819V20.0249C60.3809 20.0913 60.1836 20.1479 59.9414 20.1948C59.6992 20.2417 59.4473 20.2651 59.1855 20.2651C58.8184 20.2651 58.4883 20.2046 58.1953 20.0835C57.9023 19.9585 57.6699 19.7456 57.498 19.4448C57.3262 19.144 57.2402 18.728 57.2402 18.1968V14.7104H56.3555V14.0952L57.3047 13.6089L57.7559 12.2202H58.623V13.6616H60.4805V14.7104H58.623V18.1792C58.623 18.5073 58.7051 18.7515 58.8691 18.9116C59.0332 19.0718 59.25 19.1519 59.5195 19.1519ZM67.5996 11.5815C68.7051 11.5815 69.5117 11.8081 70.0195 12.2612C70.5273 12.7144 70.7812 13.3491 70.7812 14.1655C70.7812 14.5366 70.7227 14.8901 70.6055 15.2261C70.4922 15.5581 70.3047 15.853 70.043 16.1108C69.7812 16.3647 69.4355 16.5659 69.0059 16.7144C68.5801 16.8628 68.0547 16.937 67.4297 16.937H66.5156V20.1479H65.1094V11.5815H67.5996ZM67.5059 12.7476H66.5156V15.7651H67.2832C67.7246 15.7651 68.0996 15.7144 68.4082 15.6128C68.7168 15.5073 68.9512 15.3413 69.1113 15.1147C69.2715 14.8882 69.3516 14.5894 69.3516 14.2183C69.3516 13.7222 69.2012 13.353 68.9004 13.1108C68.6035 12.8687 68.1387 12.7476 67.5059 12.7476ZM75.6387 13.5386C75.748 13.5386 75.8672 13.5444 75.9961 13.5562C76.125 13.5679 76.2363 13.5835 76.3301 13.603L76.2012 14.8921C76.1191 14.8687 76.0176 14.8511 75.8965 14.8394C75.7793 14.8276 75.6738 14.8218 75.5801 14.8218C75.334 14.8218 75.0996 14.8628 74.877 14.9448C74.6543 15.0229 74.457 15.144 74.2852 15.3081C74.1133 15.4683 73.9785 15.6694 73.8809 15.9116C73.7832 16.1538 73.7344 16.4351 73.7344 16.7554V20.1479H72.3516V13.6616H73.4297L73.6172 14.8042H73.6816C73.8105 14.5737 73.9707 14.3628 74.1621 14.1714C74.3535 13.98 74.5723 13.8276 74.8184 13.7144C75.0684 13.5972 75.3418 13.5386 75.6387 13.5386ZM83.2734 16.8901C83.2734 17.4292 83.2031 17.9077 83.0625 18.3257C82.9219 18.7437 82.7168 19.0972 82.4473 19.3862C82.1777 19.6714 81.8535 19.8901 81.4746 20.0425C81.0957 20.1909 80.668 20.2651 80.1914 20.2651C79.7461 20.2651 79.3379 20.1909 78.9668 20.0425C78.5957 19.8901 78.2734 19.6714 78 19.3862C77.7305 19.0972 77.5215 18.7437 77.373 18.3257C77.2246 17.9077 77.1504 17.4292 77.1504 16.8901C77.1504 16.1753 77.2734 15.5698 77.5195 15.0737C77.7695 14.5737 78.125 14.1929 78.5859 13.9312C79.0469 13.6694 79.5957 13.5386 80.2324 13.5386C80.8301 13.5386 81.3574 13.6694 81.8145 13.9312C82.2715 14.1929 82.6289 14.5737 82.8867 15.0737C83.1445 15.5737 83.2734 16.1792 83.2734 16.8901ZM78.5684 16.8901C78.5684 17.3628 78.625 17.7671 78.7383 18.103C78.8555 18.439 79.0352 18.6968 79.2773 18.8765C79.5195 19.0522 79.832 19.1401 80.2148 19.1401C80.5977 19.1401 80.9102 19.0522 81.1523 18.8765C81.3945 18.6968 81.5723 18.439 81.6855 18.103C81.7988 17.7671 81.8555 17.3628 81.8555 16.8901C81.8555 16.4175 81.7988 16.0171 81.6855 15.689C81.5723 15.3569 81.3945 15.105 81.1523 14.9331C80.9102 14.7573 80.5957 14.6694 80.209 14.6694C79.6387 14.6694 79.2227 14.8608 78.9609 15.2437C78.6992 15.6265 78.5684 16.1753 78.5684 16.8901ZM88.0957 14.7104H86.5195V20.1479H85.1426V14.7104H84.082V14.0483L85.1426 13.644V13.1929C85.1426 12.6421 85.2285 12.2046 85.4004 11.8804C85.5762 11.5562 85.8262 11.3237 86.1504 11.1831C86.4785 11.0386 86.8691 10.9663 87.3223 10.9663C87.6191 10.9663 87.8906 10.9917 88.1367 11.0425C88.3828 11.0894 88.5898 11.144 88.7578 11.2065L88.4004 12.2495C88.2676 12.2065 88.1191 12.1675 87.9551 12.1323C87.791 12.0933 87.6152 12.0737 87.4277 12.0737C87.1152 12.0737 86.8848 12.1714 86.7363 12.3667C86.5918 12.562 86.5195 12.8472 86.5195 13.2222V13.6616H88.0957V14.7104ZM90.5742 13.6616V20.1479H89.1973V13.6616H90.5742ZM89.8945 11.1772C90.1055 11.1772 90.2871 11.2339 90.4395 11.3472C90.5957 11.4604 90.6738 11.6558 90.6738 11.9331C90.6738 12.2065 90.5957 12.4019 90.4395 12.519C90.2871 12.6323 90.1055 12.689 89.8945 12.689C89.6758 12.689 89.4902 12.6323 89.3379 12.519C89.1895 12.4019 89.1152 12.2065 89.1152 11.9331C89.1152 11.6558 89.1895 11.4604 89.3379 11.3472C89.4902 11.2339 89.6758 11.1772 89.8945 11.1772ZM93.9258 20.1479H92.543V11.0308H93.9258V20.1479ZM98.4785 13.5386C99.0566 13.5386 99.5527 13.6577 99.9668 13.896C100.381 14.1343 100.699 14.4722 100.922 14.9097C101.145 15.3472 101.256 15.8706 101.256 16.48V17.2183H96.9258C96.9414 17.8472 97.1094 18.3315 97.4297 18.6714C97.7539 19.0112 98.207 19.1812 98.7891 19.1812C99.2031 19.1812 99.5742 19.1421 99.9023 19.064C100.234 18.9819 100.576 18.8628 100.928 18.7065V19.8257C100.604 19.978 100.273 20.0894 99.9375 20.1597C99.6016 20.23 99.1992 20.2651 98.7305 20.2651C98.0938 20.2651 97.5332 20.1421 97.0488 19.896C96.5684 19.646 96.1914 19.2749 95.918 18.7827C95.6484 18.2905 95.5137 17.6792 95.5137 16.9487C95.5137 16.2222 95.6367 15.605 95.8828 15.0972C96.1289 14.5894 96.4746 14.2026 96.9199 13.937C97.3652 13.6714 97.8848 13.5386 98.4785 13.5386ZM98.4785 14.5757C98.0449 14.5757 97.6934 14.7163 97.4238 14.9976C97.1582 15.2788 97.002 15.6909 96.9551 16.2339H99.9082C99.9043 15.9097 99.8496 15.6226 99.7441 15.3726C99.6426 15.1226 99.4863 14.9272 99.2754 14.7866C99.0684 14.646 98.8027 14.5757 98.4785 14.5757Z" fill="white"/>
</svg>
