<svg width="238" height="217" viewBox="0 0 238 217" fill="none" xmlns="http://www.w3.org/2000/svg">
<g opacity="0.6">
<path fill-rule="evenodd" clip-rule="evenodd" d="M203.731 33.622L177.069 6.93615C175.319 5.18412 173.241 3.79401 170.954 2.84522C168.666 1.89643 166.214 1.40755 163.738 1.40649H96.1206C85.7025 1.40649 77.2646 9.85189 77.2646 20.2791V152.388C77.2646 162.815 85.7025 171.26 96.1206 171.26H190.4C200.818 171.26 209.256 162.815 209.256 152.388V46.9649C209.255 41.961 207.268 37.1622 203.731 33.622Z" fill="white" stroke="#E1E4E5" stroke-width="1.58228"/>
<path d="M107.791 54.4523H165.982M107.791 80.8122H165.982M107.667 107.083H173.147" stroke="#F6BE28" stroke-width="10.7678" stroke-linecap="round" stroke-linejoin="round"/>
<path fill-rule="evenodd" clip-rule="evenodd" d="M56.6928 122.638C41.4492 124.661 29.668 137.229 29.668 152.598C29.668 169.371 43.6616 182.973 60.9179 182.973H129.668C143.474 182.973 154.668 172.092 154.668 158.673C154.668 145.254 143.474 134.374 129.668 134.374C129.668 114.242 112.88 97.9253 92.1679 97.9253C75.6865 97.9253 61.7241 108.271 56.6928 122.638Z" fill="#F6BE28"/>
<path fill-rule="evenodd" clip-rule="evenodd" d="M27.8427 95.5879H29.099C29.4028 95.5879 29.6473 95.8351 29.6473 96.1361V97.3924C29.6473 97.6959 29.4 97.9407 29.099 97.9407H27.8427C27.6975 97.9401 27.5584 97.8821 27.4557 97.7794C27.353 97.6768 27.2951 97.5377 27.2944 97.3924V96.1361C27.2943 96.0641 27.3084 95.9927 27.3358 95.9261C27.3633 95.8595 27.4037 95.799 27.4547 95.7481C27.5056 95.6971 27.5661 95.6568 27.6327 95.6293C27.6993 95.6018 27.7707 95.5877 27.8427 95.5879ZM32.1975 95.5879H33.4538C33.7549 95.5879 34.0021 95.8351 34.0021 96.1361V97.3924C34.0021 97.6959 33.7549 97.9407 33.4538 97.9407H32.1975C32.0523 97.9401 31.9132 97.8821 31.8105 97.7794C31.7078 97.6768 31.6499 97.5377 31.6493 97.3924V96.1361C31.6493 95.8351 31.8965 95.5879 32.1975 95.5879ZM36.5555 95.5879H37.8118C38.1128 95.5879 38.3601 95.8351 38.3601 96.1361V97.3924C38.3601 97.6959 38.1128 97.9407 37.8118 97.9407H36.5555C36.4103 97.9401 36.2712 97.8821 36.1685 97.7794C36.0658 97.6768 36.0079 97.5377 36.0072 97.3924V96.1361C36.0071 96.0641 36.0211 95.9927 36.0486 95.9261C36.0761 95.8595 36.1165 95.799 36.1675 95.7481C36.2184 95.6971 36.2789 95.6568 36.3455 95.6293C36.4121 95.6018 36.4835 95.5877 36.5555 95.5879ZM40.9107 95.5879H42.1666C42.4677 95.5879 42.7149 95.8351 42.7149 96.1361V97.3924C42.7149 97.6959 42.4677 97.9407 42.1666 97.9407H40.9107C40.765 97.9407 40.6253 97.883 40.522 97.7803C40.4188 97.6776 40.3604 97.5381 40.3597 97.3924V96.1361C40.3613 95.9907 40.42 95.8518 40.5231 95.7493C40.6261 95.6468 40.7653 95.5888 40.9107 95.5879ZM45.2659 95.5879H46.5218C46.8256 95.5879 47.0729 95.8351 47.0729 96.1361V97.3924C47.0725 97.5382 47.0142 97.6778 46.9109 97.7806C46.8075 97.8835 46.6676 97.941 46.5218 97.9407H45.2659C45.1207 97.9401 44.9816 97.8821 44.8789 97.7794C44.7763 97.6768 44.7183 97.5377 44.7177 97.3924V96.1361C44.7177 95.8351 44.9649 95.5879 45.2659 95.5879ZM32.3573 100.337H33.6136C33.9147 100.337 34.1619 100.584 34.1619 100.885V102.144C34.1619 102.445 33.9147 102.692 33.6136 102.692H32.3573C32.2119 102.692 32.0726 102.634 31.9698 102.531C31.867 102.428 31.8092 102.289 31.8091 102.144V100.888C31.8086 100.815 31.8225 100.744 31.8499 100.677C31.8773 100.61 31.9176 100.549 31.9685 100.498C32.0195 100.447 32.0801 100.406 32.1468 100.379C32.2135 100.351 32.2851 100.337 32.3573 100.337ZM36.7125 100.337H37.9685C38.2695 100.337 38.5167 100.584 38.5167 100.885V102.144C38.5167 102.445 38.2695 102.692 37.9685 102.692H36.7125C36.5673 102.691 36.428 102.634 36.3253 102.531C36.2226 102.428 36.1647 102.289 36.1643 102.144V100.888C36.1638 100.815 36.1776 100.744 36.205 100.677C36.2323 100.61 36.2727 100.549 36.3236 100.498C36.3746 100.447 36.4352 100.406 36.502 100.378C36.5687 100.351 36.6403 100.337 36.7125 100.337ZM41.0677 100.337H42.3241C42.6279 100.337 42.8747 100.584 42.8747 100.885V102.144C42.8747 102.445 42.6279 102.692 42.3241 102.692H41.0677C40.9225 102.691 40.7834 102.633 40.6806 102.531C40.5779 102.428 40.52 102.289 40.5195 102.144V100.888C40.5195 100.584 40.7667 100.337 41.0677 100.337ZM36.5555 90.4862H37.8118C38.1128 90.4862 38.3601 90.733 38.3601 91.0345V92.2904C38.3601 92.5942 38.1128 92.8387 37.8118 92.8387H36.5555C36.4103 92.838 36.2712 92.7801 36.1685 92.6774C36.0658 92.5747 36.0079 92.4356 36.0072 92.2904V91.0345C36.0071 90.9624 36.0211 90.8911 36.0486 90.8245C36.0761 90.7579 36.1165 90.6974 36.1675 90.6464C36.2184 90.5955 36.2789 90.5551 36.3455 90.5276C36.4121 90.5001 36.4835 90.4861 36.5555 90.4862ZM40.9107 90.4862H42.1666C42.4677 90.4862 42.7149 90.733 42.7149 91.0345V92.2904C42.7149 92.5942 42.4677 92.8387 42.1666 92.8387H40.9107C40.765 92.8387 40.6253 92.781 40.522 92.6782C40.4188 92.5755 40.3604 92.4361 40.3597 92.2904V91.0345C40.3612 90.8891 40.4199 90.7501 40.523 90.6475C40.626 90.545 40.7653 90.487 40.9107 90.4862ZM175.39 147.803H176.646C176.95 147.803 177.194 148.05 177.194 148.351V149.608C177.194 149.911 176.947 150.156 176.646 150.156H175.39C175.245 150.155 175.106 150.097 175.003 149.995C174.9 149.892 174.842 149.753 174.842 149.608V148.351C174.841 148.279 174.856 148.208 174.883 148.141C174.911 148.075 174.951 148.014 175.002 147.963C175.053 147.912 175.113 147.872 175.18 147.844C175.246 147.817 175.318 147.803 175.39 147.803ZM179.745 147.803H181.001C181.302 147.803 181.549 148.05 181.549 148.351V149.608C181.549 149.911 181.302 150.156 181.001 150.156H179.745C179.599 150.155 179.46 150.097 179.358 149.995C179.255 149.892 179.197 149.753 179.196 149.608V148.351C179.196 148.05 179.444 147.803 179.745 147.803ZM184.103 147.803H185.359C185.66 147.803 185.907 148.05 185.907 148.351V149.608C185.907 149.911 185.66 150.156 185.359 150.156H184.103C183.957 150.155 183.818 150.097 183.716 149.995C183.613 149.892 183.555 149.753 183.554 149.608V148.351C183.554 148.279 183.568 148.208 183.596 148.141C183.623 148.075 183.664 148.014 183.715 147.963C183.766 147.912 183.826 147.872 183.893 147.844C183.959 147.817 184.031 147.803 184.103 147.803ZM188.458 147.803H189.714C190.015 147.803 190.262 148.05 190.262 148.351V149.608C190.262 149.911 190.015 150.156 189.714 150.156H188.458C188.312 150.156 188.172 150.098 188.069 149.995C187.966 149.893 187.908 149.753 187.907 149.608V148.351C187.909 148.206 187.967 148.067 188.07 147.964C188.173 147.862 188.312 147.804 188.458 147.803ZM192.813 147.803H194.069C194.373 147.803 194.62 148.05 194.62 148.351V149.608C194.62 149.753 194.561 149.893 194.458 149.996C194.355 150.099 194.215 150.156 194.069 150.156H192.813C192.668 150.155 192.529 150.097 192.426 149.995C192.323 149.892 192.265 149.753 192.265 149.608V148.351C192.265 148.05 192.512 147.803 192.813 147.803ZM179.905 152.552H181.161C181.462 152.552 181.709 152.799 181.709 153.1V154.359C181.709 154.66 181.462 154.907 181.161 154.907H179.905C179.759 154.907 179.62 154.849 179.517 154.746C179.414 154.643 179.356 154.504 179.356 154.359V153.103C179.356 153.031 179.37 152.959 179.397 152.892C179.424 152.825 179.465 152.764 179.516 152.713C179.567 152.662 179.627 152.621 179.694 152.594C179.761 152.566 179.832 152.552 179.905 152.552ZM184.26 152.552H185.516C185.817 152.552 186.064 152.799 186.064 153.1V154.359C186.064 154.66 185.817 154.907 185.516 154.907H184.26C184.114 154.907 183.975 154.849 183.873 154.746C183.77 154.643 183.712 154.504 183.711 154.359V153.103C183.711 153.031 183.725 152.959 183.752 152.892C183.78 152.825 183.82 152.764 183.871 152.713C183.922 152.662 183.982 152.621 184.049 152.594C184.116 152.566 184.187 152.552 184.26 152.552ZM188.615 152.552H189.871C190.175 152.552 190.422 152.799 190.422 153.1V154.359C190.422 154.66 190.175 154.907 189.871 154.907H188.615C188.47 154.906 188.331 154.849 188.228 154.746C188.125 154.643 188.067 154.504 188.067 154.359V153.103C188.067 152.799 188.314 152.552 188.615 152.552ZM184.103 142.701H185.359C185.66 142.701 185.907 142.948 185.907 143.25V144.505C185.907 144.809 185.66 145.054 185.359 145.054H184.103C183.957 145.053 183.818 144.995 183.716 144.892C183.613 144.79 183.555 144.651 183.554 144.505V143.25C183.554 143.178 183.568 143.106 183.596 143.04C183.623 142.973 183.664 142.912 183.715 142.862C183.766 142.811 183.826 142.77 183.893 142.743C183.959 142.715 184.031 142.701 184.103 142.701ZM188.458 142.701H189.714C190.015 142.701 190.262 142.948 190.262 143.25V144.505C190.262 144.809 190.015 145.054 189.714 145.054H188.458C188.312 145.054 188.172 144.996 188.069 144.893C187.966 144.791 187.908 144.651 187.907 144.505V143.25C187.908 143.104 187.967 142.965 188.07 142.863C188.173 142.76 188.312 142.702 188.458 142.701Z" fill="#E1E4E5"/>
<path d="M207.809 9.70074C213.406 8.37479 219.324 13.1208 219.324 13.1208C219.324 13.1208 216.166 20.014 210.568 21.3356C204.972 22.6612 199.055 17.9195 199.055 17.9195C199.055 17.9195 202.213 11.0263 207.809 9.70074Z" fill="url(#paint0_linear_3500_1547)"/>
<path d="M17.6882 73.6476C20.2478 73.6476 22.3227 71.5727 22.3227 69.0131C22.3227 66.4536 20.2478 64.3787 17.6882 64.3787C15.1286 64.3787 13.0537 66.4536 13.0537 69.0131C13.0537 71.5727 15.1286 73.6476 17.6882 73.6476Z" fill="#F6BE28"/>
<path d="M224.603 80.9921C226.525 80.9921 228.083 82.5501 228.083 84.472C228.083 86.3938 226.525 87.9518 224.603 87.9518C222.682 87.9518 221.124 86.3938 221.124 84.472C221.124 82.5501 222.682 80.9921 224.603 80.9921Z" fill="#F6BE28"/>
<path d="M7.43469 159.711C11.1036 159.711 14.0779 162.685 14.0779 166.354C14.0779 170.023 11.1036 172.997 7.43469 172.997C3.76576 172.997 0.791504 170.023 0.791504 166.354C0.791504 162.685 3.76576 159.711 7.43469 159.711Z" fill="#F6BE28"/>
<path d="M231.951 128.46C233.999 128.46 235.659 130.12 235.659 132.168C235.659 134.216 233.999 135.876 231.951 135.876C229.904 135.876 228.244 134.216 228.244 132.168C228.244 130.12 229.904 128.46 231.951 128.46Z" fill="#E1E4E5"/>
<path d="M118.274 18.8882C120.021 18.8882 121.437 20.3045 121.437 22.0516C121.437 23.7987 120.021 25.215 118.274 25.215C116.527 25.215 115.11 23.7987 115.11 22.0516C115.11 20.3045 116.527 18.8882 118.274 18.8882Z" fill="#E1E4E5"/>
<path d="M188.695 89.5346C188.253 87.8854 189.232 86.1903 190.881 85.7484C192.53 85.3066 194.225 86.2852 194.667 87.9344C195.109 89.5835 194.13 91.2786 192.481 91.7205C190.832 92.1624 189.137 91.1837 188.695 89.5346Z" fill="#E1E4E5"/>
<path d="M232.356 156.942C234.627 156.942 236.468 158.783 236.468 161.054C236.468 163.325 234.627 165.166 232.356 165.166C230.085 165.166 228.244 163.325 228.244 161.054C228.244 158.783 230.085 156.942 232.356 156.942Z" fill="#E1E4E5"/>
<path d="M54.1917 22.8439C55.9388 22.8439 57.355 23.977 57.355 25.3748C57.355 26.7725 55.9388 27.9056 54.1917 27.9056C52.4446 27.9056 51.0283 26.7725 51.0283 25.3748C51.0283 23.977 52.4446 22.8439 54.1917 22.8439Z" fill="#E1E4E5"/>
<path d="M45.5732 59.6825C44.6536 56.2504 46.6904 52.7226 50.1224 51.803C53.5545 50.8834 57.0823 52.9201 58.0019 56.3522C58.9215 59.7843 56.8847 63.312 53.4527 64.2316C50.0206 65.1513 46.4929 63.1145 45.5732 59.6825Z" fill="#E1E4E5"/>
<path d="M18.7902 126.636H18.7076C18.2175 119.692 13.0537 119.585 13.0537 119.585C13.0537 119.585 18.7479 119.474 18.7479 111.451C18.7479 119.474 24.4417 119.585 24.4417 119.585C24.4417 119.585 19.2804 119.692 18.7902 126.636ZM95.1449 46.419H95.0848C94.7292 41.2462 90.9808 41.1667 90.9808 41.1667C90.9808 41.1667 95.1141 41.0836 95.1141 35.1066C95.1141 41.0836 99.2474 41.1667 99.2474 41.1667C99.2474 41.1667 95.5005 41.2462 95.1449 46.419Z" fill="#E1E4E5"/>
<path d="M77.6934 134.054L104.065 160.425" stroke="white" stroke-width="5.49401" stroke-linecap="round"/>
<path d="M77.6934 160.425L104.065 134.054" stroke="white" stroke-width="5.49401" stroke-linecap="round"/>
</g>
<path d="M59.6436 213.5H53.9834V203.506H59.6436V204.887H55.624V207.601H59.3906V208.975H55.624V212.112H59.6436V213.5ZM65.4746 205.789C65.6022 205.789 65.7412 205.796 65.8916 205.81C66.042 205.823 66.1719 205.841 66.2812 205.864L66.1309 207.368C66.0352 207.341 65.9167 207.32 65.7754 207.307C65.6387 207.293 65.5156 207.286 65.4062 207.286C65.1191 207.286 64.8457 207.334 64.5859 207.43C64.3262 207.521 64.096 207.662 63.8955 207.854C63.695 208.04 63.5378 208.275 63.4238 208.558C63.3099 208.84 63.2529 209.168 63.2529 209.542V213.5H61.6396V205.933H62.8975L63.1162 207.266H63.1914C63.3418 206.997 63.5286 206.751 63.752 206.527C63.9753 206.304 64.2305 206.126 64.5176 205.994C64.8092 205.857 65.1283 205.789 65.4746 205.789ZM71.5176 205.789C71.6452 205.789 71.7842 205.796 71.9346 205.81C72.085 205.823 72.2148 205.841 72.3242 205.864L72.1738 207.368C72.0781 207.341 71.9596 207.32 71.8184 207.307C71.6816 207.293 71.5586 207.286 71.4492 207.286C71.1621 207.286 70.8887 207.334 70.6289 207.43C70.3691 207.521 70.139 207.662 69.9385 207.854C69.738 208.04 69.5807 208.275 69.4668 208.558C69.3529 208.84 69.2959 209.168 69.2959 209.542V213.5H67.6826V205.933H68.9404L69.1592 207.266H69.2344C69.3848 206.997 69.5716 206.751 69.7949 206.527C70.0182 206.304 70.2734 206.126 70.5605 205.994C70.8522 205.857 71.1712 205.789 71.5176 205.789ZM80.4248 209.699C80.4248 210.328 80.3428 210.886 80.1787 211.374C80.0146 211.862 79.7754 212.274 79.4609 212.611C79.1465 212.944 78.7682 213.199 78.3262 213.377C77.8841 213.55 77.3851 213.637 76.8291 213.637C76.3096 213.637 75.8333 213.55 75.4004 213.377C74.9674 213.199 74.5915 212.944 74.2725 212.611C73.958 212.274 73.7142 211.862 73.541 211.374C73.3678 210.886 73.2812 210.328 73.2812 209.699C73.2812 208.865 73.4248 208.159 73.7119 207.58C74.0036 206.997 74.4183 206.552 74.9561 206.247C75.4938 205.942 76.1341 205.789 76.877 205.789C77.5742 205.789 78.1895 205.942 78.7227 206.247C79.2559 206.552 79.6729 206.997 79.9736 207.58C80.2744 208.163 80.4248 208.87 80.4248 209.699ZM74.9355 209.699C74.9355 210.251 75.0016 210.722 75.1338 211.114C75.2705 211.506 75.4801 211.807 75.7627 212.017C76.0452 212.222 76.4098 212.324 76.8564 212.324C77.3031 212.324 77.6676 212.222 77.9502 212.017C78.2327 211.807 78.4401 211.506 78.5723 211.114C78.7044 210.722 78.7705 210.251 78.7705 209.699C78.7705 209.148 78.7044 208.681 78.5723 208.298C78.4401 207.91 78.2327 207.617 77.9502 207.416C77.6676 207.211 77.3008 207.108 76.8496 207.108C76.1842 207.108 75.6989 207.332 75.3936 207.778C75.0882 208.225 74.9355 208.865 74.9355 209.699ZM86.1055 205.789C86.2331 205.789 86.3721 205.796 86.5225 205.81C86.6729 205.823 86.8027 205.841 86.9121 205.864L86.7617 207.368C86.666 207.341 86.5475 207.32 86.4062 207.307C86.2695 207.293 86.1465 207.286 86.0371 207.286C85.75 207.286 85.4766 207.334 85.2168 207.43C84.957 207.521 84.7269 207.662 84.5264 207.854C84.3258 208.04 84.1686 208.275 84.0547 208.558C83.9408 208.84 83.8838 209.168 83.8838 209.542V213.5H82.2705V205.933H83.5283L83.7471 207.266H83.8223C83.9727 206.997 84.1595 206.751 84.3828 206.527C84.6061 206.304 84.8613 206.126 85.1484 205.994C85.4401 205.857 85.7591 205.789 86.1055 205.789ZM93.7412 213.5H92.1143V203.506H97.7607V204.887H93.7412V208.004H97.501V209.378H93.7412V213.5ZM102.43 205.789C103.104 205.789 103.683 205.928 104.166 206.206C104.649 206.484 105.021 206.878 105.28 207.389C105.54 207.899 105.67 208.51 105.67 209.221V210.082H100.618C100.636 210.816 100.832 211.381 101.206 211.777C101.584 212.174 102.113 212.372 102.792 212.372C103.275 212.372 103.708 212.326 104.091 212.235C104.478 212.14 104.877 212.001 105.287 211.818V213.124C104.909 213.302 104.524 213.432 104.132 213.514C103.74 213.596 103.271 213.637 102.724 213.637C101.981 213.637 101.327 213.493 100.762 213.206C100.201 212.914 99.7614 212.481 99.4424 211.907C99.1279 211.333 98.9707 210.62 98.9707 209.768C98.9707 208.92 99.1143 208.2 99.4014 207.607C99.6885 207.015 100.092 206.564 100.611 206.254C101.131 205.944 101.737 205.789 102.43 205.789ZM102.43 206.999C101.924 206.999 101.514 207.163 101.199 207.491C100.889 207.819 100.707 208.3 100.652 208.934H104.098C104.093 208.555 104.029 208.22 103.906 207.929C103.788 207.637 103.605 207.409 103.359 207.245C103.118 207.081 102.808 206.999 102.43 206.999ZM110.298 212.338C110.507 212.338 110.715 212.32 110.92 212.283C111.125 212.242 111.312 212.194 111.48 212.14V213.356C111.303 213.434 111.073 213.5 110.79 213.555C110.507 213.609 110.214 213.637 109.908 213.637C109.48 213.637 109.095 213.566 108.753 213.425C108.411 213.279 108.14 213.031 107.939 212.68C107.739 212.329 107.639 211.843 107.639 211.224V207.156H106.606V206.438L107.714 205.871L108.24 204.251H109.252V205.933H111.419V207.156H109.252V211.203C109.252 211.586 109.348 211.871 109.539 212.058C109.73 212.244 109.983 212.338 110.298 212.338ZM116.067 213.637C115.352 213.637 114.732 213.498 114.208 213.22C113.684 212.942 113.281 212.516 112.998 211.941C112.715 211.367 112.574 210.638 112.574 209.754C112.574 208.833 112.729 208.081 113.039 207.498C113.349 206.915 113.777 206.484 114.324 206.206C114.876 205.928 115.507 205.789 116.218 205.789C116.669 205.789 117.077 205.835 117.441 205.926C117.811 206.012 118.123 206.119 118.378 206.247L117.899 207.532C117.621 207.418 117.337 207.323 117.045 207.245C116.753 207.168 116.473 207.129 116.204 207.129C115.762 207.129 115.393 207.227 115.097 207.423C114.805 207.619 114.586 207.91 114.44 208.298C114.299 208.685 114.229 209.166 114.229 209.74C114.229 210.296 114.301 210.766 114.447 211.148C114.593 211.527 114.81 211.814 115.097 212.01C115.384 212.201 115.737 212.297 116.156 212.297C116.571 212.297 116.942 212.247 117.271 212.146C117.599 212.046 117.909 211.916 118.2 211.757V213.151C117.913 213.315 117.605 213.436 117.277 213.514C116.949 213.596 116.546 213.637 116.067 213.637ZM121.584 202.863V205.536C121.584 205.814 121.575 206.085 121.557 206.35C121.543 206.614 121.527 206.819 121.509 206.965H121.598C121.757 206.701 121.953 206.484 122.186 206.315C122.418 206.142 122.678 206.012 122.965 205.926C123.257 205.839 123.566 205.796 123.895 205.796C124.473 205.796 124.965 205.894 125.371 206.09C125.777 206.281 126.087 206.58 126.301 206.985C126.52 207.391 126.629 207.917 126.629 208.564V213.5H125.022V208.865C125.022 208.277 124.902 207.838 124.66 207.546C124.419 207.25 124.045 207.102 123.539 207.102C123.051 207.102 122.664 207.204 122.377 207.409C122.094 207.61 121.892 207.908 121.769 208.305C121.646 208.697 121.584 209.175 121.584 209.74V213.5H119.978V202.863H121.584ZM130.484 205.933V213.5H128.878V205.933H130.484ZM129.691 203.034C129.938 203.034 130.149 203.1 130.327 203.232C130.509 203.365 130.601 203.592 130.601 203.916C130.601 204.235 130.509 204.463 130.327 204.6C130.149 204.732 129.938 204.798 129.691 204.798C129.436 204.798 129.22 204.732 129.042 204.6C128.869 204.463 128.782 204.235 128.782 203.916C128.782 203.592 128.869 203.365 129.042 203.232C129.22 203.1 129.436 203.034 129.691 203.034ZM136.732 205.789C137.585 205.789 138.248 206.01 138.722 206.452C139.2 206.89 139.439 207.594 139.439 208.564V213.5H137.833V208.865C137.833 208.277 137.712 207.838 137.471 207.546C137.229 207.25 136.855 207.102 136.35 207.102C135.616 207.102 135.105 207.327 134.818 207.778C134.536 208.229 134.395 208.883 134.395 209.74V213.5H132.788V205.933H134.039L134.265 206.958H134.354C134.518 206.694 134.72 206.477 134.962 206.309C135.208 206.135 135.481 206.006 135.782 205.919C136.088 205.832 136.404 205.789 136.732 205.789ZM143.849 216.863C142.823 216.863 142.037 216.679 141.49 216.31C140.943 215.94 140.67 215.423 140.67 214.758C140.67 214.293 140.816 213.899 141.107 213.575C141.399 213.256 141.816 213.035 142.358 212.912C142.153 212.821 141.976 212.68 141.825 212.488C141.679 212.292 141.606 212.076 141.606 211.839C141.606 211.556 141.686 211.315 141.846 211.114C142.005 210.914 142.244 210.72 142.563 210.533C142.167 210.365 141.848 210.091 141.606 209.713C141.369 209.33 141.251 208.881 141.251 208.366C141.251 207.819 141.367 207.354 141.6 206.972C141.832 206.584 142.172 206.29 142.618 206.09C143.065 205.885 143.605 205.782 144.238 205.782C144.375 205.782 144.523 205.791 144.683 205.81C144.847 205.823 144.997 205.841 145.134 205.864C145.275 205.882 145.382 205.903 145.455 205.926H148.073V206.821L146.788 207.061C146.911 207.234 147.009 207.432 147.082 207.655C147.155 207.874 147.191 208.113 147.191 208.373C147.191 209.157 146.92 209.774 146.378 210.226C145.84 210.672 145.097 210.896 144.149 210.896C143.922 210.886 143.701 210.868 143.486 210.841C143.322 210.941 143.197 211.053 143.11 211.176C143.024 211.294 142.98 211.429 142.98 211.579C142.98 211.702 143.024 211.802 143.11 211.88C143.197 211.953 143.325 212.007 143.493 212.044C143.666 212.08 143.876 212.099 144.122 212.099H145.428C146.257 212.099 146.891 212.274 147.328 212.625C147.766 212.976 147.984 213.491 147.984 214.17C147.984 215.031 147.629 215.694 146.918 216.159C146.207 216.629 145.184 216.863 143.849 216.863ZM143.91 215.735C144.471 215.735 144.942 215.681 145.325 215.571C145.708 215.462 145.997 215.305 146.193 215.1C146.389 214.899 146.487 214.66 146.487 214.382C146.487 214.136 146.426 213.947 146.303 213.814C146.18 213.682 145.995 213.591 145.749 213.541C145.503 213.491 145.198 213.466 144.833 213.466H143.644C143.347 213.466 143.085 213.511 142.857 213.603C142.63 213.698 142.452 213.835 142.324 214.013C142.201 214.19 142.14 214.405 142.14 214.655C142.14 215.002 142.292 215.268 142.598 215.455C142.908 215.642 143.345 215.735 143.91 215.735ZM144.225 209.843C144.694 209.843 145.043 209.715 145.271 209.46C145.498 209.2 145.612 208.836 145.612 208.366C145.612 207.856 145.494 207.473 145.257 207.218C145.024 206.963 144.678 206.835 144.218 206.835C143.767 206.835 143.423 206.965 143.186 207.225C142.953 207.484 142.837 207.869 142.837 208.38C142.837 208.84 142.953 209.2 143.186 209.46C143.423 209.715 143.769 209.843 144.225 209.843ZM161.369 208.407C161.369 209.533 161.16 210.474 160.74 211.23C160.321 211.982 159.713 212.55 158.915 212.933C158.118 213.311 157.156 213.5 156.03 213.5H153.255V203.506H156.331C157.366 203.506 158.259 203.693 159.011 204.066C159.763 204.436 160.344 204.985 160.754 205.714C161.164 206.438 161.369 207.336 161.369 208.407ZM159.66 208.455C159.66 207.635 159.53 206.96 159.271 206.432C159.015 205.903 158.637 205.511 158.136 205.256C157.639 204.996 157.026 204.866 156.297 204.866H154.896V212.126H156.058C157.265 212.126 158.168 211.818 158.765 211.203C159.362 210.588 159.66 209.672 159.66 208.455ZM166.325 205.789C167.282 205.789 168.005 206.001 168.492 206.425C168.984 206.849 169.23 207.509 169.23 208.407V213.5H168.089L167.781 212.427H167.727C167.512 212.7 167.291 212.926 167.063 213.104C166.836 213.281 166.571 213.413 166.271 213.5C165.974 213.591 165.612 213.637 165.184 213.637C164.732 213.637 164.329 213.555 163.974 213.391C163.618 213.222 163.338 212.967 163.133 212.625C162.928 212.283 162.825 211.85 162.825 211.326C162.825 210.547 163.115 209.961 163.693 209.569C164.277 209.177 165.156 208.961 166.332 208.92L167.645 208.872V208.476C167.645 207.951 167.521 207.578 167.275 207.354C167.034 207.131 166.692 207.02 166.25 207.02C165.872 207.02 165.505 207.074 165.149 207.184C164.794 207.293 164.448 207.427 164.11 207.587L163.591 206.452C163.96 206.256 164.379 206.097 164.849 205.974C165.323 205.851 165.815 205.789 166.325 205.789ZM167.638 209.884L166.66 209.918C165.858 209.945 165.295 210.082 164.972 210.328C164.648 210.574 164.486 210.911 164.486 211.34C164.486 211.714 164.598 211.987 164.821 212.16C165.045 212.329 165.339 212.413 165.703 212.413C166.259 212.413 166.719 212.256 167.084 211.941C167.453 211.622 167.638 211.155 167.638 210.54V209.884ZM174.296 212.338C174.506 212.338 174.713 212.32 174.918 212.283C175.123 212.242 175.31 212.194 175.479 212.14V213.356C175.301 213.434 175.071 213.5 174.788 213.555C174.506 213.609 174.212 213.637 173.906 213.637C173.478 213.637 173.093 213.566 172.751 213.425C172.409 213.279 172.138 213.031 171.938 212.68C171.737 212.329 171.637 211.843 171.637 211.224V207.156H170.604V206.438L171.712 205.871L172.238 204.251H173.25V205.933H175.417V207.156H173.25V211.203C173.25 211.586 173.346 211.871 173.537 212.058C173.729 212.244 173.981 212.338 174.296 212.338ZM179.983 205.789C180.94 205.789 181.663 206.001 182.15 206.425C182.643 206.849 182.889 207.509 182.889 208.407V213.5H181.747L181.439 212.427H181.385C181.171 212.7 180.95 212.926 180.722 213.104C180.494 213.281 180.229 213.413 179.929 213.5C179.632 213.591 179.27 213.637 178.842 213.637C178.391 213.637 177.987 213.555 177.632 213.391C177.276 213.222 176.996 212.967 176.791 212.625C176.586 212.283 176.483 211.85 176.483 211.326C176.483 210.547 176.773 209.961 177.352 209.569C177.935 209.177 178.814 208.961 179.99 208.92L181.303 208.872V208.476C181.303 207.951 181.18 207.578 180.934 207.354C180.692 207.131 180.35 207.02 179.908 207.02C179.53 207.02 179.163 207.074 178.808 207.184C178.452 207.293 178.106 207.427 177.769 207.587L177.249 206.452C177.618 206.256 178.037 206.097 178.507 205.974C178.981 205.851 179.473 205.789 179.983 205.789ZM181.296 209.884L180.318 209.918C179.516 209.945 178.953 210.082 178.63 210.328C178.306 210.574 178.145 210.911 178.145 211.34C178.145 211.714 178.256 211.987 178.479 212.16C178.703 212.329 178.997 212.413 179.361 212.413C179.917 212.413 180.378 212.256 180.742 211.941C181.111 211.622 181.296 211.155 181.296 210.54V209.884Z" fill="#76777A"/>
<defs>
<linearGradient id="paint0_linear_3500_1547" x1="228.883" y1="6.40446" x2="179.894" y2="29.5484" gradientUnits="userSpaceOnUse">
<stop stop-color="white"/>
<stop offset="1" stop-color="#EEEEEE"/>
</linearGradient>
</defs>
</svg>
