<svg width="267" height="261" viewBox="0 0 267 261" fill="none" xmlns="http://www.w3.org/2000/svg">
<g opacity="0.6" clip-path="url(#clip0_3497_22095)">
<path d="M266.599 142.394C268.377 175.166 204.306 241.803 125.333 217.139C88.6035 205.667 91.7146 186.625 63.7857 161.529C47.1386 146.572 23.2197 135.262 16.5671 113.521C10.8198 94.7551 14.3443 74.5846 24.3075 61.4645C46.7153 31.9591 91.9522 11.755 136.525 58.2434C181.097 104.732 262.002 57.8728 266.599 142.394Z" fill="url(#paint0_linear_3497_22095)"/>
<path d="M249.039 70.1546C242.808 81.2769 229.159 82.8051 207.292 80.6918C190.847 79.0993 175.85 77.8669 159.404 68.9001C147.893 62.6281 138.78 54.1428 132.13 45.9017C124.923 36.9735 114.864 26.7838 119.795 16.6609C126.572 2.75491 165.762 -8.95647 203.816 10.196C245.619 31.2414 255.136 59.2839 249.039 70.1546Z" fill="url(#paint1_linear_3497_22095)"/>
<path d="M90.4193 206.183C75.9006 185.871 61.0314 164.283 41.565 153.651C21.4855 142.678 17.7827 149.44 16.3926 160.192C15.0025 170.944 21.1977 196.418 48.6004 210.911C76.0101 225.41 104.004 225.192 90.4193 206.183Z" fill="url(#paint2_linear_3497_22095)"/>
<path d="M215.491 6.02698H66.7779C61.2308 6.02698 56.7339 10.5239 56.7339 16.0711V60.7176C56.7339 66.2648 61.2308 70.7617 66.7779 70.7617H215.491C221.038 70.7617 225.535 66.2648 225.535 60.7176V16.0711C225.535 10.5239 221.038 6.02698 215.491 6.02698Z" fill="white" stroke="#E1E4E5" stroke-width="2.00881"/>
<path d="M204.373 25.9064H109.068C106.969 25.9064 105.267 27.608 105.267 29.707C105.267 31.8061 106.969 33.5077 109.068 33.5077H204.373C206.472 33.5077 208.174 31.8061 208.174 29.707C208.174 27.608 206.472 25.9064 204.373 25.9064Z" fill="#E1E4E5"/>
<path d="M168.122 42.8635H109.068C106.969 42.8635 105.267 44.5651 105.267 46.6641C105.267 48.7632 106.969 50.4648 109.068 50.4648H168.122C170.221 50.4648 171.922 48.7632 171.922 46.6641C171.922 44.5651 170.221 42.8635 168.122 42.8635Z" fill="#E1E4E5"/>
<path fill-rule="evenodd" clip-rule="evenodd" d="M83.4833 54.7114C74.5361 54.7114 67.2817 47.3551 67.2817 38.2813C67.2817 29.208 74.5361 21.8513 83.4833 21.8513C92.4311 21.8513 99.6854 29.208 99.6854 38.2813C99.6854 47.3551 92.4311 54.7114 83.4833 54.7114Z" fill="#F6BE28"/>
<path d="M215.491 84.0162H66.7779C61.2308 84.0162 56.7339 88.5131 56.7339 94.0603V138.707C56.7339 144.254 61.2308 148.751 66.7779 148.751H215.491C221.038 148.751 225.535 144.254 225.535 138.707V94.0603C225.535 88.5131 221.038 84.0162 215.491 84.0162Z" fill="white" stroke="#E1E4E5" stroke-width="2.00881"/>
<path d="M204.373 103.896H109.068C106.969 103.896 105.267 105.597 105.267 107.696C105.267 109.795 106.969 111.497 109.068 111.497H204.373C206.472 111.497 208.174 109.795 208.174 107.696C208.174 105.597 206.472 103.896 204.373 103.896Z" fill="#E1E4E5"/>
<path d="M168.122 120.853H109.068C106.969 120.853 105.267 122.555 105.267 124.654C105.267 126.753 106.969 128.454 109.068 128.454H168.122C170.221 128.454 171.922 126.753 171.922 124.654C171.922 122.555 170.221 120.853 168.122 120.853Z" fill="#E1E4E5"/>
<path fill-rule="evenodd" clip-rule="evenodd" d="M83.4833 132.702C74.5361 132.702 67.2817 125.345 67.2817 116.272C67.2817 107.198 74.5361 99.842 83.4833 99.842C92.4311 99.842 99.6854 107.198 99.6854 116.272C99.6854 125.345 92.4311 132.702 83.4833 132.702Z" fill="#F6BE28"/>
<path d="M215.491 162.007H66.7779C61.2308 162.007 56.7339 166.504 56.7339 172.051V216.697C56.7339 222.245 61.2308 226.742 66.7779 226.742H215.491C221.038 226.742 225.535 222.245 225.535 216.697V172.051C225.535 166.504 221.038 162.007 215.491 162.007Z" fill="white" stroke="#E1E4E5" stroke-width="2.00881"/>
<path d="M204.373 181.886H109.068C106.969 181.886 105.267 183.588 105.267 185.687C105.267 187.786 106.969 189.487 109.068 189.487H204.373C206.472 189.487 208.174 187.786 208.174 185.687C208.174 183.588 206.472 181.886 204.373 181.886Z" fill="#E1E4E5"/>
<path d="M168.122 198.843H109.068C106.969 198.843 105.267 200.544 105.267 202.643C105.267 204.742 106.969 206.444 109.068 206.444H168.122C170.221 206.444 171.922 204.742 171.922 202.643C171.922 200.544 170.221 198.843 168.122 198.843Z" fill="#E1E4E5"/>
<path fill-rule="evenodd" clip-rule="evenodd" d="M83.4833 210.692C74.5361 210.692 67.2817 203.335 67.2817 194.262C67.2817 185.189 74.5361 177.832 83.4833 177.832C92.4311 177.832 99.6854 185.189 99.6854 194.262C99.6854 203.335 92.4311 210.692 83.4833 210.692Z" fill="#F6BE28"/>
<path d="M238.412 54.8517C238.163 55.7822 238.715 56.7385 239.645 56.9878C240.576 57.2372 241.532 56.685 241.781 55.7546C242.031 54.8241 241.479 53.8677 240.548 53.6184C239.618 53.3691 238.661 53.9213 238.412 54.8517Z" fill="#E1E4E5"/>
<path d="M248.493 88.4046C249.968 88.4046 251.164 87.2089 251.164 85.7339C251.164 84.2589 249.968 83.0632 248.493 83.0632C247.018 83.0632 245.823 84.2589 245.823 85.7339C245.823 87.2089 247.018 88.4046 248.493 88.4046Z" fill="#F6BE28"/>
<path d="M36.8426 173.358C34.6298 173.358 32.836 175.152 32.836 177.364C32.836 179.577 34.6298 181.371 36.8426 181.371C39.0553 181.371 40.8491 179.577 40.8491 177.364C40.8491 175.152 39.0553 173.358 36.8426 173.358Z" fill="#F6BE28"/>
<path d="M27.5842 92.2275C26.0324 92.2275 24.7744 90.9695 24.7744 89.4177C24.7744 87.8659 26.0324 86.6079 27.5842 86.6079C29.136 86.6079 30.394 87.8659 30.394 89.4177C30.394 90.9695 29.136 92.2275 27.5842 92.2275Z" fill="#F6BE28"/>
<path d="M5.33052 142.374C2.52781 142.374 0.255764 140.102 0.255764 137.299C0.255764 134.497 2.52781 132.225 5.33052 132.225C8.13323 132.225 10.4053 134.497 10.4053 137.299C10.4053 140.102 8.13323 142.374 5.33052 142.374Z" fill="#E1E4E5"/>
<path d="M253.722 178.163C250.919 178.163 248.647 175.891 248.647 173.089C248.647 170.286 250.919 168.014 253.722 168.014C256.525 168.014 258.797 170.286 258.797 173.089C258.797 175.891 256.525 178.163 253.722 178.163Z" fill="#E1E4E5"/>
<path d="M38.8234 117.626C39.1802 118.958 38.3899 120.326 37.0581 120.683C35.7264 121.04 34.3575 120.25 34.0006 118.918C33.6438 117.586 34.4341 116.217 35.7659 115.86C37.0977 115.504 38.4665 116.294 38.8234 117.626Z" fill="#E1E4E5"/>
<path d="M239.692 121.814C240.048 123.146 239.258 124.515 237.926 124.872C236.595 125.229 235.226 124.438 234.869 123.107C234.512 121.775 235.302 120.406 236.634 120.049C237.966 119.692 239.335 120.483 239.692 121.814Z" fill="#E1E4E5"/>
<path d="M39.3401 65.1494C37.5059 65.1494 36.019 63.6625 36.019 61.8283C36.019 59.9942 37.5059 58.5073 39.3401 58.5073C41.1742 58.5073 42.6611 59.9942 42.6611 61.8283C42.6611 63.6625 41.1742 65.1494 39.3401 65.1494Z" fill="#E1E4E5"/>
<path d="M82.2927 40.7938V40.2071C82.2927 39.7477 82.3457 39.3473 82.4517 39.0058C82.5577 38.6644 82.7354 38.3447 82.9849 38.0467C83.2343 37.7425 83.5711 37.4258 83.9951 37.0968C84.4317 36.7554 84.7778 36.4605 85.0334 36.2121C85.2954 35.9638 85.4824 35.7155 85.5947 35.4671C85.7132 35.2126 85.7724 34.9177 85.7724 34.5825C85.7724 34.0548 85.5916 33.6543 85.2299 33.3812C84.8744 33.1018 84.3724 32.9621 83.7239 32.9621C83.1501 32.9621 82.6107 33.0428 82.1056 33.2042C81.6005 33.3657 81.1016 33.5674 80.6089 33.8095L79.8325 32.1706C80.4 31.8602 81.0143 31.6118 81.6753 31.4256C82.3426 31.2331 83.0753 31.1369 83.8735 31.1369C85.1457 31.1369 86.1279 31.4442 86.8201 32.0588C87.5185 32.6734 87.8678 33.4836 87.8678 34.4894C87.8678 35.0419 87.7805 35.5168 87.6058 35.9141C87.4312 36.3053 87.1724 36.6684 86.8294 37.0037C86.4927 37.3327 86.0842 37.6804 85.6041 38.0467C85.2112 38.3571 84.9087 38.6271 84.6967 38.8568C84.4909 39.0803 84.3475 39.3069 84.2664 39.5366C84.1916 39.7664 84.1542 40.0426 84.1542 40.3654V40.7938H82.2927ZM81.9372 43.7924C81.9372 43.2833 82.0682 42.9263 82.3301 42.7215C82.5982 42.5104 82.9256 42.4049 83.3123 42.4049C83.6864 42.4049 84.0076 42.5104 84.2758 42.7215C84.5439 42.9263 84.678 43.2833 84.678 43.7924C84.678 44.2891 84.5439 44.6491 84.2758 44.8726C84.0076 45.0899 83.6864 45.1986 83.3123 45.1986C82.9256 45.1986 82.5982 45.0899 82.3301 44.8726C82.0682 44.6491 81.9372 44.2891 81.9372 43.7924Z" fill="white"/>
<path d="M82.2927 120.141V119.555C82.2927 119.095 82.3457 118.695 82.4517 118.353C82.5577 118.012 82.7354 117.692 82.9849 117.394C83.2343 117.09 83.5711 116.773 83.9951 116.444C84.4317 116.103 84.7778 115.808 85.0334 115.56C85.2954 115.311 85.4824 115.063 85.5947 114.815C85.7132 114.56 85.7724 114.265 85.7724 113.93C85.7724 113.402 85.5916 113.002 85.2299 112.729C84.8744 112.449 84.3724 112.31 83.7239 112.31C83.1501 112.31 82.6107 112.39 82.1056 112.552C81.6005 112.713 81.1016 112.915 80.6089 113.157L79.8325 111.518C80.4 111.208 81.0143 110.959 81.6753 110.773C82.3426 110.581 83.0753 110.484 83.8735 110.484C85.1457 110.484 86.1279 110.792 86.8201 111.406C87.5185 112.021 87.8678 112.831 87.8678 113.837C87.8678 114.389 87.7805 114.864 87.6058 115.262C87.4312 115.653 87.1724 116.016 86.8294 116.351C86.4927 116.68 86.0842 117.028 85.6041 117.394C85.2112 117.705 84.9087 117.975 84.6967 118.204C84.4909 118.428 84.3475 118.655 84.2664 118.884C84.1916 119.114 84.1542 119.39 84.1542 119.713V120.141H82.2927ZM81.9372 123.14C81.9372 122.631 82.0682 122.274 82.3301 122.069C82.5982 121.858 82.9256 121.752 83.3123 121.752C83.6864 121.752 84.0076 121.858 84.2758 122.069C84.5439 122.274 84.678 122.631 84.678 123.14C84.678 123.637 84.5439 123.997 84.2758 124.22C84.0076 124.438 83.6864 124.546 83.3123 124.546C82.9256 124.546 82.5982 124.438 82.3301 124.22C82.0682 123.997 81.9372 123.637 81.9372 123.14Z" fill="white"/>
<path d="M82.2927 195.472V194.886C82.2927 194.426 82.3457 194.026 82.4517 193.684C82.5577 193.343 82.7354 193.023 82.9849 192.725C83.2343 192.421 83.5711 192.104 83.9951 191.775C84.4317 191.434 84.7778 191.139 85.0334 190.891C85.2954 190.642 85.4824 190.394 85.5947 190.146C85.7132 189.891 85.7724 189.596 85.7724 189.261C85.7724 188.733 85.5916 188.333 85.2299 188.06C84.8744 187.78 84.3724 187.641 83.7239 187.641C83.1501 187.641 82.6107 187.721 82.1056 187.883C81.6005 188.044 81.1016 188.246 80.6089 188.488L79.8325 186.849C80.4 186.539 81.0143 186.29 81.6753 186.104C82.3426 185.912 83.0753 185.815 83.8735 185.815C85.1457 185.815 86.1279 186.123 86.8201 186.737C87.5185 187.352 87.8678 188.162 87.8678 189.168C87.8678 189.72 87.7805 190.195 87.6058 190.593C87.4312 190.984 87.1724 191.347 86.8294 191.682C86.4927 192.011 86.0842 192.359 85.6041 192.725C85.2112 193.035 84.9087 193.306 84.6967 193.535C84.4909 193.759 84.3475 193.985 84.2664 194.215C84.1916 194.445 84.1542 194.721 84.1542 195.044V195.472H82.2927ZM81.9372 198.471C81.9372 197.962 82.0682 197.605 82.3301 197.4C82.5982 197.189 82.9256 197.083 83.3123 197.083C83.6864 197.083 84.0076 197.189 84.2758 197.4C84.5439 197.605 84.678 197.962 84.678 198.471C84.678 198.967 84.5439 199.328 84.2758 199.551C84.0076 199.768 83.6864 199.877 83.3123 199.877C82.9256 199.877 82.5982 199.768 82.3301 199.551C82.0682 199.328 81.9372 198.967 81.9372 198.471Z" fill="white"/>
</g>
<path d="M30.9775 252.565L33.3496 248.006H35.1201L31.7979 254.117V258H30.1641V254.179L26.835 248.006H28.6191L30.9775 252.565ZM42.9678 254.199C42.9678 254.828 42.8857 255.386 42.7217 255.874C42.5576 256.362 42.3184 256.774 42.0039 257.111C41.6895 257.444 41.3112 257.699 40.8691 257.877C40.4271 258.05 39.9281 258.137 39.3721 258.137C38.8525 258.137 38.3763 258.05 37.9434 257.877C37.5104 257.699 37.1344 257.444 36.8154 257.111C36.501 256.774 36.2572 256.362 36.084 255.874C35.9108 255.386 35.8242 254.828 35.8242 254.199C35.8242 253.365 35.9678 252.659 36.2549 252.08C36.5465 251.497 36.9613 251.052 37.499 250.747C38.0368 250.442 38.6771 250.289 39.4199 250.289C40.1172 250.289 40.7324 250.442 41.2656 250.747C41.7988 251.052 42.2158 251.497 42.5166 252.08C42.8174 252.663 42.9678 253.37 42.9678 254.199ZM37.4785 254.199C37.4785 254.751 37.5446 255.222 37.6768 255.614C37.8135 256.006 38.0231 256.307 38.3057 256.517C38.5882 256.722 38.9528 256.824 39.3994 256.824C39.846 256.824 40.2106 256.722 40.4932 256.517C40.7757 256.307 40.9831 256.006 41.1152 255.614C41.2474 255.222 41.3135 254.751 41.3135 254.199C41.3135 253.648 41.2474 253.181 41.1152 252.798C40.9831 252.41 40.7757 252.117 40.4932 251.916C40.2106 251.711 39.8438 251.608 39.3926 251.608C38.7272 251.608 38.2419 251.832 37.9365 252.278C37.6312 252.725 37.4785 253.365 37.4785 254.199ZM51.4102 250.433V258H50.1455L49.9268 256.981H49.8379C49.6784 257.241 49.4756 257.458 49.2295 257.631C48.9834 257.799 48.71 257.925 48.4092 258.007C48.1084 258.093 47.7917 258.137 47.459 258.137C46.8893 258.137 46.4017 258.041 45.9961 257.85C45.5951 257.654 45.2874 257.353 45.0732 256.947C44.859 256.542 44.752 256.018 44.752 255.375V250.433H46.3652V255.074C46.3652 255.662 46.4837 256.102 46.7207 256.394C46.9622 256.685 47.3359 256.831 47.8418 256.831C48.3294 256.831 48.7168 256.731 49.0039 256.53C49.291 256.33 49.4938 256.034 49.6123 255.642C49.7354 255.25 49.7969 254.769 49.7969 254.199V250.433H51.4102ZM58.957 247.363V250.036C58.957 250.314 58.9479 250.585 58.9297 250.85C58.916 251.114 58.9001 251.319 58.8818 251.465H58.9707C59.1302 251.201 59.3262 250.984 59.5586 250.815C59.791 250.642 60.0508 250.512 60.3379 250.426C60.6296 250.339 60.9395 250.296 61.2676 250.296C61.8464 250.296 62.3385 250.394 62.7441 250.59C63.1497 250.781 63.4596 251.08 63.6738 251.485C63.8926 251.891 64.002 252.417 64.002 253.064V258H62.3955V253.365C62.3955 252.777 62.2747 252.338 62.0332 252.046C61.7917 251.75 61.418 251.602 60.9121 251.602C60.4245 251.602 60.0371 251.704 59.75 251.909C59.4674 252.11 59.2646 252.408 59.1416 252.805C59.0186 253.197 58.957 253.675 58.957 254.24V258H57.3506V247.363H58.957ZM69.2178 250.289C70.1748 250.289 70.8971 250.501 71.3848 250.925C71.877 251.349 72.123 252.009 72.123 252.907V258H70.9814L70.6738 256.927H70.6191C70.4049 257.2 70.1839 257.426 69.9561 257.604C69.7282 257.781 69.4639 257.913 69.1631 258C68.8669 258.091 68.5046 258.137 68.0762 258.137C67.625 258.137 67.2217 258.055 66.8662 257.891C66.5107 257.722 66.2305 257.467 66.0254 257.125C65.8203 256.783 65.7178 256.35 65.7178 255.826C65.7178 255.047 66.0072 254.461 66.5859 254.069C67.1693 253.677 68.0488 253.461 69.2246 253.42L70.5371 253.372V252.976C70.5371 252.451 70.4141 252.078 70.168 251.854C69.9264 251.631 69.5846 251.52 69.1426 251.52C68.7643 251.52 68.3975 251.574 68.042 251.684C67.6865 251.793 67.3402 251.927 67.0029 252.087L66.4834 250.952C66.8525 250.756 67.2718 250.597 67.7412 250.474C68.2152 250.351 68.7074 250.289 69.2178 250.289ZM70.5303 254.384L69.5527 254.418C68.7507 254.445 68.1878 254.582 67.8643 254.828C67.5407 255.074 67.3789 255.411 67.3789 255.84C67.3789 256.214 67.4906 256.487 67.7139 256.66C67.9372 256.829 68.2311 256.913 68.5957 256.913C69.1517 256.913 69.612 256.756 69.9766 256.441C70.3457 256.122 70.5303 255.655 70.5303 255.04V254.384ZM76.1016 258L73.2236 250.433H74.9258L76.4844 254.876C76.5846 255.159 76.6758 255.464 76.7578 255.792C76.8398 256.12 76.8968 256.396 76.9287 256.619H76.9834C77.0153 256.387 77.0768 256.109 77.168 255.785C77.2591 255.457 77.3525 255.154 77.4482 254.876L79.0068 250.433H80.7021L77.8242 258H76.1016ZM84.8652 250.289C85.5397 250.289 86.1185 250.428 86.6016 250.706C87.0846 250.984 87.4561 251.378 87.7158 251.889C87.9756 252.399 88.1055 253.01 88.1055 253.721V254.582H83.0537C83.0719 255.316 83.2679 255.881 83.6416 256.277C84.0199 256.674 84.5485 256.872 85.2275 256.872C85.7106 256.872 86.1436 256.826 86.5264 256.735C86.9137 256.64 87.3125 256.501 87.7227 256.318V257.624C87.3444 257.802 86.9593 257.932 86.5674 258.014C86.1755 258.096 85.7061 258.137 85.1592 258.137C84.4163 258.137 83.7624 257.993 83.1973 257.706C82.6367 257.414 82.1969 256.981 81.8779 256.407C81.5635 255.833 81.4062 255.12 81.4062 254.268C81.4062 253.42 81.5498 252.7 81.8369 252.107C82.124 251.515 82.5273 251.064 83.0469 250.754C83.5664 250.444 84.1725 250.289 84.8652 250.289ZM84.8652 251.499C84.3594 251.499 83.9492 251.663 83.6348 251.991C83.3249 252.319 83.1426 252.8 83.0879 253.434H86.5332C86.5286 253.055 86.4648 252.72 86.3418 252.429C86.2233 252.137 86.041 251.909 85.7949 251.745C85.5534 251.581 85.2435 251.499 84.8652 251.499ZM97.498 250.289C98.3503 250.289 99.0133 250.51 99.4873 250.952C99.9658 251.39 100.205 252.094 100.205 253.064V258H98.5986V253.365C98.5986 252.777 98.4779 252.338 98.2363 252.046C97.9948 251.75 97.6211 251.602 97.1152 251.602C96.3815 251.602 95.8711 251.827 95.584 252.278C95.3014 252.729 95.1602 253.383 95.1602 254.24V258H93.5537V250.433H94.8047L95.0303 251.458H95.1191C95.2832 251.194 95.486 250.977 95.7275 250.809C95.9736 250.635 96.2471 250.506 96.5479 250.419C96.8532 250.332 97.1699 250.289 97.498 250.289ZM109.153 254.199C109.153 254.828 109.071 255.386 108.907 255.874C108.743 256.362 108.504 256.774 108.189 257.111C107.875 257.444 107.497 257.699 107.055 257.877C106.613 258.05 106.114 258.137 105.558 258.137C105.038 258.137 104.562 258.05 104.129 257.877C103.696 257.699 103.32 257.444 103.001 257.111C102.687 256.774 102.443 256.362 102.27 255.874C102.096 255.386 102.01 254.828 102.01 254.199C102.01 253.365 102.153 252.659 102.44 252.08C102.732 251.497 103.147 251.052 103.685 250.747C104.222 250.442 104.863 250.289 105.605 250.289C106.303 250.289 106.918 250.442 107.451 250.747C107.984 251.052 108.401 251.497 108.702 252.08C109.003 252.663 109.153 253.37 109.153 254.199ZM103.664 254.199C103.664 254.751 103.73 255.222 103.862 255.614C103.999 256.006 104.209 256.307 104.491 256.517C104.774 256.722 105.138 256.824 105.585 256.824C106.032 256.824 106.396 256.722 106.679 256.517C106.961 256.307 107.169 256.006 107.301 255.614C107.433 255.222 107.499 254.751 107.499 254.199C107.499 253.648 107.433 253.181 107.301 252.798C107.169 252.41 106.961 252.117 106.679 251.916C106.396 251.711 106.029 251.608 105.578 251.608C104.913 251.608 104.427 251.832 104.122 252.278C103.817 252.725 103.664 253.365 103.664 254.199ZM117.452 256.838C117.662 256.838 117.869 256.82 118.074 256.783C118.279 256.742 118.466 256.694 118.635 256.64V257.856C118.457 257.934 118.227 258 117.944 258.055C117.662 258.109 117.368 258.137 117.062 258.137C116.634 258.137 116.249 258.066 115.907 257.925C115.565 257.779 115.294 257.531 115.094 257.18C114.893 256.829 114.793 256.343 114.793 255.724V251.656H113.761V250.938L114.868 250.371L115.395 248.751H116.406V250.433H118.573V251.656H116.406V255.703C116.406 256.086 116.502 256.371 116.693 256.558C116.885 256.744 117.138 256.838 117.452 256.838ZM124.008 250.289C124.135 250.289 124.274 250.296 124.425 250.31C124.575 250.323 124.705 250.341 124.814 250.364L124.664 251.868C124.568 251.841 124.45 251.82 124.309 251.807C124.172 251.793 124.049 251.786 123.939 251.786C123.652 251.786 123.379 251.834 123.119 251.93C122.859 252.021 122.629 252.162 122.429 252.354C122.228 252.54 122.071 252.775 121.957 253.058C121.843 253.34 121.786 253.668 121.786 254.042V258H120.173V250.433H121.431L121.649 251.766H121.725C121.875 251.497 122.062 251.251 122.285 251.027C122.508 250.804 122.764 250.626 123.051 250.494C123.342 250.357 123.661 250.289 124.008 250.289ZM129.183 250.289C130.14 250.289 130.862 250.501 131.35 250.925C131.842 251.349 132.088 252.009 132.088 252.907V258H130.946L130.639 256.927H130.584C130.37 257.2 130.149 257.426 129.921 257.604C129.693 257.781 129.429 257.913 129.128 258C128.832 258.091 128.469 258.137 128.041 258.137C127.59 258.137 127.187 258.055 126.831 257.891C126.476 257.722 126.195 257.467 125.99 257.125C125.785 256.783 125.683 256.35 125.683 255.826C125.683 255.047 125.972 254.461 126.551 254.069C127.134 253.677 128.014 253.461 129.189 253.42L130.502 253.372V252.976C130.502 252.451 130.379 252.078 130.133 251.854C129.891 251.631 129.549 251.52 129.107 251.52C128.729 251.52 128.362 251.574 128.007 251.684C127.651 251.793 127.305 251.927 126.968 252.087L126.448 250.952C126.817 250.756 127.237 250.597 127.706 250.474C128.18 250.351 128.672 250.289 129.183 250.289ZM130.495 254.384L129.518 254.418C128.715 254.445 128.153 254.582 127.829 254.828C127.506 255.074 127.344 255.411 127.344 255.84C127.344 256.214 127.455 256.487 127.679 256.66C127.902 256.829 128.196 256.913 128.561 256.913C129.117 256.913 129.577 256.756 129.941 256.441C130.311 256.122 130.495 255.655 130.495 255.04V254.384ZM138.281 250.289C139.133 250.289 139.797 250.51 140.271 250.952C140.749 251.39 140.988 252.094 140.988 253.064V258H139.382V253.365C139.382 252.777 139.261 252.338 139.02 252.046C138.778 251.75 138.404 251.602 137.898 251.602C137.165 251.602 136.654 251.827 136.367 252.278C136.085 252.729 135.943 253.383 135.943 254.24V258H134.337V250.433H135.588L135.813 251.458H135.902C136.066 251.194 136.269 250.977 136.511 250.809C136.757 250.635 137.03 250.506 137.331 250.419C137.636 250.332 137.953 250.289 138.281 250.289ZM148.323 255.84C148.323 256.337 148.202 256.756 147.961 257.098C147.719 257.439 147.366 257.699 146.901 257.877C146.441 258.05 145.876 258.137 145.206 258.137C144.677 258.137 144.222 258.098 143.839 258.021C143.461 257.948 143.103 257.834 142.766 257.679V256.291C143.126 256.46 143.529 256.605 143.976 256.729C144.427 256.852 144.853 256.913 145.254 256.913C145.783 256.913 146.163 256.831 146.396 256.667C146.628 256.498 146.744 256.275 146.744 255.997C146.744 255.833 146.696 255.687 146.601 255.56C146.509 255.427 146.336 255.293 146.081 255.156C145.83 255.015 145.461 254.846 144.974 254.65C144.495 254.459 144.092 254.268 143.764 254.076C143.436 253.885 143.187 253.655 143.019 253.386C142.85 253.112 142.766 252.764 142.766 252.34C142.766 251.67 143.03 251.162 143.559 250.815C144.092 250.465 144.796 250.289 145.671 250.289C146.136 250.289 146.573 250.337 146.983 250.433C147.398 250.524 147.804 250.658 148.2 250.836L147.694 252.046C147.353 251.896 147.008 251.772 146.662 251.677C146.32 251.576 145.972 251.526 145.616 251.526C145.201 251.526 144.885 251.59 144.666 251.718C144.452 251.845 144.345 252.028 144.345 252.265C144.345 252.442 144.397 252.593 144.502 252.716C144.607 252.839 144.787 252.962 145.042 253.085C145.302 253.208 145.662 253.361 146.122 253.543C146.573 253.716 146.963 253.898 147.291 254.09C147.624 254.277 147.879 254.507 148.057 254.78C148.234 255.054 148.323 255.407 148.323 255.84ZM153.026 250.289C153.983 250.289 154.706 250.501 155.193 250.925C155.686 251.349 155.932 252.009 155.932 252.907V258H154.79L154.482 256.927H154.428C154.214 257.2 153.993 257.426 153.765 257.604C153.537 257.781 153.272 257.913 152.972 258C152.675 258.091 152.313 258.137 151.885 258.137C151.434 258.137 151.03 258.055 150.675 257.891C150.319 257.722 150.039 257.467 149.834 257.125C149.629 256.783 149.526 256.35 149.526 255.826C149.526 255.047 149.816 254.461 150.395 254.069C150.978 253.677 151.857 253.461 153.033 253.42L154.346 253.372V252.976C154.346 252.451 154.223 252.078 153.977 251.854C153.735 251.631 153.393 251.52 152.951 251.52C152.573 251.52 152.206 251.574 151.851 251.684C151.495 251.793 151.149 251.927 150.812 252.087L150.292 250.952C150.661 250.756 151.08 250.597 151.55 250.474C152.024 250.351 152.516 250.289 153.026 250.289ZM154.339 254.384L153.361 254.418C152.559 254.445 151.996 254.582 151.673 254.828C151.349 255.074 151.188 255.411 151.188 255.84C151.188 256.214 151.299 256.487 151.522 256.66C151.746 256.829 152.04 256.913 152.404 256.913C152.96 256.913 153.421 256.756 153.785 256.441C154.154 256.122 154.339 255.655 154.339 255.04V254.384ZM161.229 258.137C160.514 258.137 159.894 257.998 159.37 257.72C158.846 257.442 158.443 257.016 158.16 256.441C157.878 255.867 157.736 255.138 157.736 254.254C157.736 253.333 157.891 252.581 158.201 251.998C158.511 251.415 158.939 250.984 159.486 250.706C160.038 250.428 160.669 250.289 161.38 250.289C161.831 250.289 162.239 250.335 162.604 250.426C162.973 250.512 163.285 250.619 163.54 250.747L163.062 252.032C162.784 251.918 162.499 251.823 162.207 251.745C161.915 251.668 161.635 251.629 161.366 251.629C160.924 251.629 160.555 251.727 160.259 251.923C159.967 252.119 159.748 252.41 159.603 252.798C159.461 253.185 159.391 253.666 159.391 254.24C159.391 254.796 159.464 255.266 159.609 255.648C159.755 256.027 159.972 256.314 160.259 256.51C160.546 256.701 160.899 256.797 161.318 256.797C161.733 256.797 162.104 256.747 162.433 256.646C162.761 256.546 163.071 256.416 163.362 256.257V257.651C163.075 257.815 162.768 257.936 162.439 258.014C162.111 258.096 161.708 258.137 161.229 258.137ZM167.956 256.838C168.166 256.838 168.373 256.82 168.578 256.783C168.783 256.742 168.97 256.694 169.139 256.64V257.856C168.961 257.934 168.731 258 168.448 258.055C168.166 258.109 167.872 258.137 167.566 258.137C167.138 258.137 166.753 258.066 166.411 257.925C166.069 257.779 165.798 257.531 165.598 257.18C165.397 256.829 165.297 256.343 165.297 255.724V251.656H164.265V250.938L165.372 250.371L165.898 248.751H166.91V250.433H169.077V251.656H166.91V255.703C166.91 256.086 167.006 256.371 167.197 256.558C167.389 256.744 167.642 256.838 167.956 256.838ZM172.283 250.433V258H170.677V250.433H172.283ZM171.49 247.534C171.736 247.534 171.948 247.6 172.126 247.732C172.308 247.865 172.399 248.092 172.399 248.416C172.399 248.735 172.308 248.963 172.126 249.1C171.948 249.232 171.736 249.298 171.49 249.298C171.235 249.298 171.019 249.232 170.841 249.1C170.668 248.963 170.581 248.735 170.581 248.416C170.581 248.092 170.668 247.865 170.841 247.732C171.019 247.6 171.235 247.534 171.49 247.534ZM181.286 254.199C181.286 254.828 181.204 255.386 181.04 255.874C180.876 256.362 180.637 256.774 180.322 257.111C180.008 257.444 179.63 257.699 179.188 257.877C178.745 258.05 178.246 258.137 177.69 258.137C177.171 258.137 176.695 258.05 176.262 257.877C175.829 257.699 175.453 257.444 175.134 257.111C174.819 256.774 174.576 256.362 174.402 255.874C174.229 255.386 174.143 254.828 174.143 254.199C174.143 253.365 174.286 252.659 174.573 252.08C174.865 251.497 175.28 251.052 175.817 250.747C176.355 250.442 176.995 250.289 177.738 250.289C178.436 250.289 179.051 250.442 179.584 250.747C180.117 251.052 180.534 251.497 180.835 252.08C181.136 252.663 181.286 253.37 181.286 254.199ZM175.797 254.199C175.797 254.751 175.863 255.222 175.995 255.614C176.132 256.006 176.341 256.307 176.624 256.517C176.907 256.722 177.271 256.824 177.718 256.824C178.164 256.824 178.529 256.722 178.812 256.517C179.094 256.307 179.301 256.006 179.434 255.614C179.566 255.222 179.632 254.751 179.632 254.199C179.632 253.648 179.566 253.181 179.434 252.798C179.301 252.41 179.094 252.117 178.812 251.916C178.529 251.711 178.162 251.608 177.711 251.608C177.046 251.608 176.56 251.832 176.255 252.278C175.95 252.725 175.797 253.365 175.797 254.199ZM187.076 250.289C187.928 250.289 188.591 250.51 189.065 250.952C189.544 251.39 189.783 252.094 189.783 253.064V258H188.177V253.365C188.177 252.777 188.056 252.338 187.814 252.046C187.573 251.75 187.199 251.602 186.693 251.602C185.96 251.602 185.449 251.827 185.162 252.278C184.88 252.729 184.738 253.383 184.738 254.24V258H183.132V250.433H184.383L184.608 251.458H184.697C184.861 251.194 185.064 250.977 185.306 250.809C185.552 250.635 185.825 250.506 186.126 250.419C186.431 250.332 186.748 250.289 187.076 250.289ZM197.118 255.84C197.118 256.337 196.997 256.756 196.756 257.098C196.514 257.439 196.161 257.699 195.696 257.877C195.236 258.05 194.671 258.137 194.001 258.137C193.472 258.137 193.017 258.098 192.634 258.021C192.256 257.948 191.898 257.834 191.561 257.679V256.291C191.921 256.46 192.324 256.605 192.771 256.729C193.222 256.852 193.648 256.913 194.049 256.913C194.577 256.913 194.958 256.831 195.19 256.667C195.423 256.498 195.539 256.275 195.539 255.997C195.539 255.833 195.491 255.687 195.396 255.56C195.304 255.427 195.131 255.293 194.876 255.156C194.625 255.015 194.256 254.846 193.769 254.65C193.29 254.459 192.887 254.268 192.559 254.076C192.23 253.885 191.982 253.655 191.813 253.386C191.645 253.112 191.561 252.764 191.561 252.34C191.561 251.67 191.825 251.162 192.354 250.815C192.887 250.465 193.591 250.289 194.466 250.289C194.931 250.289 195.368 250.337 195.778 250.433C196.193 250.524 196.599 250.658 196.995 250.836L196.489 252.046C196.147 251.896 195.803 251.772 195.457 251.677C195.115 251.576 194.767 251.526 194.411 251.526C193.996 251.526 193.68 251.59 193.461 251.718C193.247 251.845 193.14 252.028 193.14 252.265C193.14 252.442 193.192 252.593 193.297 252.716C193.402 252.839 193.582 252.962 193.837 253.085C194.097 253.208 194.457 253.361 194.917 253.543C195.368 253.716 195.758 253.898 196.086 254.09C196.419 254.277 196.674 254.507 196.852 254.78C197.029 255.054 197.118 255.407 197.118 255.84ZM207.577 255.84C207.577 256.337 207.456 256.756 207.215 257.098C206.973 257.439 206.62 257.699 206.155 257.877C205.695 258.05 205.13 258.137 204.46 258.137C203.931 258.137 203.476 258.098 203.093 258.021C202.715 257.948 202.357 257.834 202.02 257.679V256.291C202.38 256.46 202.783 256.605 203.229 256.729C203.681 256.852 204.107 256.913 204.508 256.913C205.036 256.913 205.417 256.831 205.649 256.667C205.882 256.498 205.998 256.275 205.998 255.997C205.998 255.833 205.95 255.687 205.854 255.56C205.763 255.427 205.59 255.293 205.335 255.156C205.084 255.015 204.715 254.846 204.228 254.65C203.749 254.459 203.346 254.268 203.018 254.076C202.689 253.885 202.441 253.655 202.272 253.386C202.104 253.112 202.02 252.764 202.02 252.34C202.02 251.67 202.284 251.162 202.812 250.815C203.346 250.465 204.05 250.289 204.925 250.289C205.39 250.289 205.827 250.337 206.237 250.433C206.652 250.524 207.058 250.658 207.454 250.836L206.948 252.046C206.606 251.896 206.262 251.772 205.916 251.677C205.574 251.576 205.226 251.526 204.87 251.526C204.455 251.526 204.139 251.59 203.92 251.718C203.706 251.845 203.599 252.028 203.599 252.265C203.599 252.442 203.651 252.593 203.756 252.716C203.861 252.839 204.041 252.962 204.296 253.085C204.556 253.208 204.916 253.361 205.376 253.543C205.827 253.716 206.217 253.898 206.545 254.09C206.878 254.277 207.133 254.507 207.311 254.78C207.488 255.054 207.577 255.407 207.577 255.84ZM216.013 254.199C216.013 254.828 215.931 255.386 215.767 255.874C215.603 256.362 215.363 256.774 215.049 257.111C214.734 257.444 214.356 257.699 213.914 257.877C213.472 258.05 212.973 258.137 212.417 258.137C211.897 258.137 211.421 258.05 210.988 257.877C210.555 257.699 210.179 257.444 209.86 257.111C209.546 256.774 209.302 256.362 209.129 255.874C208.956 255.386 208.869 254.828 208.869 254.199C208.869 253.365 209.013 252.659 209.3 252.08C209.591 251.497 210.006 251.052 210.544 250.747C211.082 250.442 211.722 250.289 212.465 250.289C213.162 250.289 213.777 250.442 214.311 250.747C214.844 251.052 215.261 251.497 215.562 252.08C215.862 252.663 216.013 253.37 216.013 254.199ZM210.523 254.199C210.523 254.751 210.59 255.222 210.722 255.614C210.858 256.006 211.068 256.307 211.351 256.517C211.633 256.722 211.998 256.824 212.444 256.824C212.891 256.824 213.256 256.722 213.538 256.517C213.821 256.307 214.028 256.006 214.16 255.614C214.292 255.222 214.358 254.751 214.358 254.199C214.358 253.648 214.292 253.181 214.16 252.798C214.028 252.41 213.821 252.117 213.538 251.916C213.256 251.711 212.889 251.608 212.438 251.608C211.772 251.608 211.287 251.832 210.981 252.278C210.676 252.725 210.523 253.365 210.523 254.199ZM225.275 251.656H223.437V258H221.83V251.656H220.593V250.884L221.83 250.412V249.886C221.83 249.243 221.93 248.733 222.131 248.354C222.336 247.976 222.628 247.705 223.006 247.541C223.389 247.372 223.844 247.288 224.373 247.288C224.719 247.288 225.036 247.318 225.323 247.377C225.61 247.432 225.852 247.495 226.048 247.568L225.631 248.785C225.476 248.735 225.303 248.689 225.111 248.648C224.92 248.603 224.715 248.58 224.496 248.58C224.132 248.58 223.863 248.694 223.689 248.922C223.521 249.15 223.437 249.482 223.437 249.92V250.433H225.275V251.656ZM229.534 250.289C230.491 250.289 231.214 250.501 231.701 250.925C232.193 251.349 232.439 252.009 232.439 252.907V258H231.298L230.99 256.927H230.936C230.721 257.2 230.5 257.426 230.272 257.604C230.045 257.781 229.78 257.913 229.479 258C229.183 258.091 228.821 258.137 228.393 258.137C227.941 258.137 227.538 258.055 227.183 257.891C226.827 257.722 226.547 257.467 226.342 257.125C226.137 256.783 226.034 256.35 226.034 255.826C226.034 255.047 226.324 254.461 226.902 254.069C227.486 253.677 228.365 253.461 229.541 253.42L230.854 253.372V252.976C230.854 252.451 230.73 252.078 230.484 251.854C230.243 251.631 229.901 251.52 229.459 251.52C229.081 251.52 228.714 251.574 228.358 251.684C228.003 251.793 227.657 251.927 227.319 252.087L226.8 250.952C227.169 250.756 227.588 250.597 228.058 250.474C228.532 250.351 229.024 250.289 229.534 250.289ZM230.847 254.384L229.869 254.418C229.067 254.445 228.504 254.582 228.181 254.828C227.857 255.074 227.695 255.411 227.695 255.84C227.695 256.214 227.807 256.487 228.03 256.66C228.254 256.829 228.548 256.913 228.912 256.913C229.468 256.913 229.928 256.756 230.293 256.441C230.662 256.122 230.847 255.655 230.847 255.04V254.384ZM238.523 250.289C238.651 250.289 238.79 250.296 238.94 250.31C239.091 250.323 239.221 250.341 239.33 250.364L239.18 251.868C239.084 251.841 238.965 251.82 238.824 251.807C238.688 251.793 238.564 251.786 238.455 251.786C238.168 251.786 237.895 251.834 237.635 251.93C237.375 252.021 237.145 252.162 236.944 252.354C236.744 252.54 236.587 252.775 236.473 253.058C236.359 253.34 236.302 253.668 236.302 254.042V258H234.688V250.433H235.946L236.165 251.766H236.24C236.391 251.497 236.577 251.251 236.801 251.027C237.024 250.804 237.279 250.626 237.566 250.494C237.858 250.357 238.177 250.289 238.523 250.289Z" fill="#76777A"/>
<defs>
<linearGradient id="paint0_linear_3497_22095" x1="190.02" y1="338.835" x2="70.1701" y2="-201.886" gradientUnits="userSpaceOnUse">
<stop stop-color="white"/>
<stop offset="1" stop-color="#EEEEEE"/>
</linearGradient>
<linearGradient id="paint1_linear_3497_22095" x1="207.056" y1="142.238" x2="151.508" y2="-107.371" gradientUnits="userSpaceOnUse">
<stop stop-color="white"/>
<stop offset="1" stop-color="#EEEEEE"/>
</linearGradient>
<linearGradient id="paint2_linear_3497_22095" x1="74.2077" y1="272.861" x2="26.5729" y2="52.5746" gradientUnits="userSpaceOnUse">
<stop stop-color="white"/>
<stop offset="1" stop-color="#EEEEEE"/>
</linearGradient>
<clipPath id="clip0_3497_22095">
<rect width="266.67" height="228" fill="white"/>
</clipPath>
</defs>
</svg>
