<svg width="41" height="40" viewBox="0 0 41 40" fill="none" xmlns="http://www.w3.org/2000/svg">
<path d="M12.752 29.7819L12.7437 29.7902L12.7356 29.7989C12.1837 30.3913 11.6925 30.7456 11.2906 30.9192C10.8953 31.0898 10.6273 31.0712 10.4488 30.9943C10.2654 30.9153 10.0506 30.7206 9.87509 30.2903C9.69871 29.8578 9.58341 29.2329 9.58341 28.4V13.3866C9.58341 10.6898 9.91424 9.26449 10.6602 8.46708C11.3915 7.68548 12.6914 7.33329 15.2101 7.33329H25.2901C27.809 7.33329 29.1084 7.6856 29.8378 8.46665C30.5819 9.26339 30.9101 10.6881 30.9034 13.385V13.3866V28.3866C30.9034 29.2201 30.7888 29.8453 30.6132 30.278C30.4384 30.7086 30.2246 30.9026 30.0426 30.9812C29.8653 31.0577 29.5981 31.0767 29.2016 30.9057C28.7988 30.732 28.3058 30.3774 27.7505 29.7847C27.0786 29.0641 26.2009 28.7062 25.3172 28.7543C24.4334 28.8024 23.5999 29.2535 23.0101 30.04L23.0096 30.0406L21.6652 31.8376C21.6649 31.8381 21.6645 31.8385 21.6641 31.839C21.2313 32.41 20.7112 32.6433 20.2434 32.6433C19.7756 32.6433 19.2555 32.41 18.8227 31.839C18.8223 31.8385 18.822 31.8381 18.8216 31.8376L17.4774 30.0409C17.4774 30.0408 17.4773 30.0407 17.4772 30.0406C16.2826 28.4425 14.1339 28.3243 12.7587 29.7752L12.752 29.7819ZM16.5834 19H23.9167C24.8316 19 25.5834 18.2481 25.5834 17.3333C25.5834 16.4184 24.8316 15.6666 23.9167 15.6666H16.5834C15.6686 15.6666 14.9167 16.4184 14.9167 17.3333C14.9167 18.2481 15.6686 19 16.5834 19Z" fill="#022E64" stroke="#022E64" stroke-width="1.33333"/>
</svg>
