<svg width="30" height="60" viewBox="0 0 53 76" fill="none" xmlns="http://www.w3.org/2000/svg">
<g opacity="0.6">
<path d="M39.5402 12.9999C38.2186 12.9999 37.0052 12.2416 36.3986 11.0716L34.8386 7.92992C33.8419 5.95825 31.2419 4.33325 29.0319 4.33325H24.0702C21.8386 4.33325 19.2386 5.95825 18.2419 7.92992L16.6819 11.0716C16.0752 12.2416 14.8619 12.9999 13.5402 12.9999C8.83857 12.9999 5.11191 16.9649 5.41524 21.6449L6.54191 39.5416C6.80191 44.0049 9.20691 47.6666 15.1869 47.6666H37.8936C43.8736 47.6666 46.2569 44.0049 46.5386 39.5416L47.6652 21.6449C47.9686 16.9649 44.2419 12.9999 39.5402 12.9999ZM23.2902 15.7083H29.7902C30.6786 15.7083 31.4152 16.4449 31.4152 17.3333C31.4152 18.2216 30.6786 18.9583 29.7902 18.9583H23.2902C22.4019 18.9583 21.6652 18.2216 21.6652 17.3333C21.6652 16.4449 22.4019 15.7083 23.2902 15.7083ZM26.5402 39.2599C22.5102 39.2599 19.2169 35.9883 19.2169 31.9366C19.2169 27.8849 22.4886 24.6133 26.5402 24.6133C30.5919 24.6133 33.8636 27.8849 33.8636 31.9366C33.8636 35.9883 30.5702 39.2599 26.5402 39.2599Z" fill="#212121"/>
<path d="M10.7 61.0059V67.4727C10.7 68.1699 10.5518 68.7943 10.2556 69.3457C9.96395 69.8971 9.52189 70.3346 8.92944 70.6582C8.337 70.9772 7.59188 71.1367 6.69409 71.1367C5.41349 71.1367 4.43823 70.8018 3.76831 70.1318C3.10295 69.4574 2.77026 68.5618 2.77026 67.4453V61.0059H4.41089V67.3018C4.41089 68.1357 4.60685 68.751 4.99878 69.1475C5.39071 69.5439 5.97632 69.7422 6.75562 69.7422C7.29338 69.7422 7.73088 69.6488 8.06812 69.4619C8.40991 69.2705 8.66056 68.9925 8.82007 68.6279C8.98413 68.2588 9.06616 67.8145 9.06616 67.2949V61.0059H10.7ZM17.1753 63.2891C18.0731 63.2891 18.7932 63.6172 19.3355 64.2734C19.8824 64.9297 20.1558 65.9049 20.1558 67.1992C20.1558 68.056 20.0282 68.7783 19.773 69.3662C19.5223 69.9495 19.1692 70.3916 18.7134 70.6924C18.2623 70.9886 17.7359 71.1367 17.1343 71.1367C16.7515 71.1367 16.4188 71.0866 16.1363 70.9863C15.8537 70.8861 15.6122 70.7562 15.4117 70.5967C15.2111 70.4326 15.0425 70.2549 14.9058 70.0635H14.8101C14.8329 70.2458 14.8534 70.4486 14.8716 70.6719C14.8944 70.8906 14.9058 71.0911 14.9058 71.2734V74.3564H13.2925V63.4326H14.605L14.8306 64.4785H14.9058C15.0471 64.2643 15.218 64.0661 15.4185 63.8838C15.6236 63.7015 15.8697 63.5579 16.1568 63.4531C16.4485 63.3438 16.788 63.2891 17.1753 63.2891ZM16.7447 64.6016C16.3026 64.6016 15.9472 64.6904 15.6783 64.8682C15.4139 65.0413 15.2203 65.3034 15.0972 65.6543C14.9787 66.0052 14.9149 66.445 14.9058 66.9736V67.1992C14.9058 67.7598 14.9628 68.236 15.0767 68.6279C15.1952 69.0153 15.3889 69.3115 15.6578 69.5166C15.9312 69.7171 16.3003 69.8174 16.7652 69.8174C17.1571 69.8174 17.4807 69.7103 17.7359 69.4961C17.9957 69.2819 18.1893 68.9766 18.3169 68.5801C18.4445 68.1836 18.5083 67.7165 18.5083 67.1787C18.5083 66.363 18.3625 65.7295 18.0708 65.2783C17.7837 64.8271 17.3417 64.6016 16.7447 64.6016ZM23.8285 71H22.2152V60.3633H23.8285V71ZM33.0246 67.1992C33.0246 67.8281 32.9425 68.3864 32.7785 68.874C32.6144 69.3617 32.3751 69.7741 32.0607 70.1113C31.7462 70.444 31.368 70.6992 30.9259 70.877C30.4839 71.0501 29.9848 71.1367 29.4289 71.1367C28.9093 71.1367 28.4331 71.0501 28.0001 70.877C27.5672 70.6992 27.1912 70.444 26.8722 70.1113C26.5578 69.7741 26.3139 69.3617 26.1408 68.874C25.9676 68.3864 25.881 67.8281 25.881 67.1992C25.881 66.3652 26.0246 65.6589 26.3117 65.0801C26.6033 64.4967 27.0181 64.0524 27.5558 63.7471C28.0936 63.4417 28.7339 63.2891 29.4767 63.2891C30.174 63.2891 30.7892 63.4417 31.3224 63.7471C31.8556 64.0524 32.2726 64.4967 32.5734 65.0801C32.8742 65.6634 33.0246 66.3698 33.0246 67.1992ZM27.5353 67.1992C27.5353 67.7507 27.6014 68.2223 27.7335 68.6143C27.8703 69.0062 28.0799 69.307 28.3625 69.5166C28.645 69.7217 29.0096 69.8242 29.4562 69.8242C29.9028 69.8242 30.2674 69.7217 30.55 69.5166C30.8325 69.307 31.0399 69.0062 31.172 68.6143C31.3042 68.2223 31.3703 67.7507 31.3703 67.1992C31.3703 66.6478 31.3042 66.1807 31.172 65.7979C31.0399 65.4105 30.8325 65.1165 30.55 64.916C30.2674 64.7109 29.9005 64.6084 29.4494 64.6084C28.784 64.6084 28.2986 64.8317 27.9933 65.2783C27.688 65.7249 27.5353 66.3652 27.5353 67.1992ZM38.0371 63.2891C38.9941 63.2891 39.7164 63.501 40.2041 63.9248C40.6962 64.3486 40.9423 65.0094 40.9423 65.9072V71H39.8007L39.4931 69.9268H39.4384C39.2242 70.2002 39.0032 70.4258 38.7753 70.6035C38.5475 70.7812 38.2832 70.9134 37.9824 71C37.6861 71.0911 37.3238 71.1367 36.8955 71.1367C36.4443 71.1367 36.041 71.0547 35.6855 70.8906C35.33 70.722 35.0498 70.4668 34.8447 70.125C34.6396 69.7832 34.5371 69.3503 34.5371 68.8262C34.5371 68.0469 34.8264 67.4613 35.4052 67.0693C35.9886 66.6774 36.8681 66.4609 38.0439 66.4199L39.3564 66.3721V65.9756C39.3564 65.4515 39.2333 65.0778 38.9873 64.8545C38.7457 64.6312 38.4039 64.5195 37.9619 64.5195C37.5836 64.5195 37.2167 64.5742 36.8613 64.6836C36.5058 64.793 36.1595 64.9274 35.8222 65.0869L35.3027 63.9521C35.6718 63.7562 36.0911 63.5967 36.5605 63.4736C37.0345 63.3506 37.5266 63.2891 38.0371 63.2891ZM39.3496 67.3838L38.372 67.418C37.5699 67.4453 37.0071 67.582 36.6835 67.8281C36.36 68.0742 36.1982 68.4115 36.1982 68.8398C36.1982 69.2135 36.3098 69.487 36.5332 69.6602C36.7565 69.8288 37.0504 69.9131 37.415 69.9131C37.971 69.9131 38.4313 69.7559 38.7958 69.4414C39.165 69.1224 39.3496 68.6553 39.3496 68.04V67.3838ZM45.9343 71.1367C45.032 71.1367 44.3074 70.8086 43.7605 70.1523C43.2182 69.4915 42.947 68.5186 42.947 67.2334C42.947 65.9346 43.2227 64.9525 43.7742 64.2871C44.3302 63.6217 45.0616 63.2891 45.9685 63.2891C46.3513 63.2891 46.6863 63.3415 46.9734 63.4463C47.2605 63.5465 47.5066 63.6833 47.7117 63.8564C47.9213 64.0296 48.099 64.2233 48.2449 64.4375H48.3201C48.2973 64.2962 48.2699 64.0934 48.238 63.8291C48.2107 63.5602 48.197 63.3118 48.197 63.084V60.3633H49.8103V71H48.5525L48.2654 69.9678H48.197C48.0603 70.1865 47.8871 70.3848 47.6775 70.5625C47.4724 70.7357 47.2263 70.8747 46.9392 70.9795C46.6567 71.0843 46.3217 71.1367 45.9343 71.1367ZM46.3855 69.8311C47.0736 69.8311 47.559 69.6328 47.8416 69.2363C48.1241 68.8398 48.2699 68.2451 48.2791 67.4521V67.2402C48.2791 66.3926 48.1423 65.7432 47.8689 65.292C47.5955 64.8363 47.0964 64.6084 46.3718 64.6084C45.7931 64.6084 45.351 64.8431 45.0457 65.3125C44.7449 65.7773 44.5945 66.4268 44.5945 67.2607C44.5945 68.0947 44.7449 68.7327 45.0457 69.1748C45.351 69.6123 45.7976 69.8311 46.3855 69.8311Z" fill="#212121"/>
</g>
</svg>
